<svg width="194" height="88" viewBox="0 0 194 88" fill="none" xmlns="http://www.w3.org/2000/svg">
<rect width="194" height="88" rx="13.4008" fill="#162A32"/>
<path d="M19.7902 30.9999V22.7679H26.1742V23.9199H21.1342V26.2119H25.6462V27.3639H21.1342V29.8479H26.2462V30.9999H19.7902ZM29.3041 31.1439C29.1041 31.1439 28.8881 31.1199 28.6561 31.0719C28.4241 31.0239 28.2041 30.9359 27.9961 30.8079C27.7961 30.6799 27.6321 30.5039 27.5041 30.2799C27.3761 30.0479 27.3121 29.7479 27.3121 29.3799C27.3121 28.9479 27.4121 28.5919 27.6121 28.3119C27.8121 28.0319 28.0921 27.8119 28.4521 27.6519C28.8121 27.4919 29.2401 27.3799 29.7361 27.3159C30.2401 27.2519 30.7881 27.2199 31.3801 27.2199V26.5959C31.3801 26.3879 31.3441 26.2039 31.2721 26.0439C31.2081 25.8839 31.0841 25.7599 30.9001 25.6719C30.7241 25.5839 30.4681 25.5399 30.1321 25.5399C29.7961 25.5399 29.5321 25.5839 29.3401 25.6719C29.1561 25.7519 29.0241 25.8559 28.9441 25.9839C28.8721 26.1039 28.8361 26.2359 28.8361 26.3799V26.5599H27.6361C27.6281 26.5199 27.6241 26.4799 27.6241 26.4399C27.6241 26.3999 27.6241 26.3519 27.6241 26.2959C27.6241 25.9199 27.7281 25.6039 27.9361 25.3479C28.1521 25.0839 28.4521 24.8839 28.8361 24.7479C29.2201 24.6119 29.6641 24.5439 30.1681 24.5439C30.7121 24.5439 31.1641 24.6239 31.5241 24.7839C31.8921 24.9359 32.1681 25.1559 32.3521 25.4439C32.5361 25.7319 32.6281 26.0799 32.6281 26.4879V29.6919C32.6281 29.8439 32.6641 29.9519 32.7361 30.0159C32.8161 30.0799 32.9081 30.1119 33.0121 30.1119H33.4441V30.9519C33.3481 30.9919 33.2281 31.0319 33.0841 31.0719C32.9401 31.1119 32.7721 31.1319 32.5801 31.1319C32.3641 31.1319 32.1801 31.0919 32.0281 31.0119C31.8841 30.9399 31.7641 30.8359 31.6681 30.6999C31.5801 30.5559 31.5201 30.3959 31.4881 30.2199H31.4161C31.2721 30.4039 31.0961 30.5679 30.8881 30.7119C30.6881 30.8479 30.4561 30.9519 30.1921 31.0239C29.9281 31.1039 29.6321 31.1439 29.3041 31.1439ZM29.6521 30.1119C29.9001 30.1119 30.1281 30.0759 30.3361 30.0039C30.5521 29.9239 30.7361 29.8159 30.8881 29.6799C31.0401 29.5359 31.1601 29.3679 31.2481 29.1759C31.3361 28.9759 31.3801 28.7599 31.3801 28.5279V28.1079C30.8281 28.1079 30.3441 28.1399 29.9281 28.2039C29.5121 28.2679 29.1881 28.3879 28.9561 28.5639C28.7241 28.7319 28.6081 28.9679 28.6081 29.2719C28.6081 29.4559 28.6481 29.6119 28.7281 29.7399C28.8081 29.8599 28.9281 29.9519 29.0881 30.0159C29.2481 30.0799 29.4361 30.1119 29.6521 30.1119ZM35.8778 31.1439C35.5178 31.1439 35.2338 31.0759 35.0258 30.9399C34.8258 30.7959 34.6818 30.6159 34.5938 30.3999C34.5138 30.1759 34.4738 29.9399 34.4738 29.6919V25.7199H33.6818V24.6879H34.4978L34.7258 22.9239H35.7218V24.6879H36.8618V25.7199H35.7218V29.5479C35.7218 29.7319 35.7618 29.8719 35.8418 29.9679C35.9218 30.0639 36.0538 30.1119 36.2378 30.1119H36.8618V30.9519C36.7818 30.9839 36.6818 31.0119 36.5618 31.0359C36.4498 31.0679 36.3338 31.0919 36.2138 31.1079C36.0938 31.1319 35.9818 31.1439 35.8778 31.1439ZM40.578 31.1439C39.93 31.1439 39.386 31.0279 38.946 30.7959C38.514 30.5559 38.186 30.1919 37.962 29.7039C37.738 29.2159 37.626 28.5959 37.626 27.8439C37.626 27.0839 37.738 26.4639 37.962 25.9839C38.186 25.4959 38.518 25.1359 38.958 24.9039C39.398 24.6639 39.946 24.5439 40.602 24.5439C41.202 24.5439 41.702 24.6599 42.102 24.8919C42.51 25.1159 42.818 25.4599 43.026 25.9239C43.234 26.3879 43.338 26.9719 43.338 27.6759V28.1559H38.91C38.926 28.6039 38.994 28.9799 39.114 29.2839C39.234 29.5799 39.414 29.7999 39.654 29.9439C39.902 30.0799 40.214 30.1479 40.59 30.1479C40.822 30.1479 41.03 30.1199 41.214 30.0639C41.398 29.9999 41.554 29.9119 41.682 29.7999C41.81 29.6799 41.91 29.5399 41.982 29.3799C42.054 29.2119 42.09 29.0239 42.09 28.8159H43.314C43.314 29.1919 43.25 29.5239 43.122 29.8119C42.994 30.0999 42.806 30.3439 42.558 30.5439C42.318 30.7359 42.03 30.8839 41.694 30.9879C41.358 31.0919 40.986 31.1439 40.578 31.1439ZM38.934 27.2439H42.03C42.03 26.9319 41.994 26.6719 41.922 26.4639C41.858 26.2479 41.762 26.0719 41.634 25.9359C41.506 25.7999 41.354 25.7039 41.178 25.6479C41.002 25.5839 40.802 25.5519 40.578 25.5519C40.242 25.5519 39.954 25.6119 39.714 25.7319C39.482 25.8519 39.302 26.0399 39.174 26.2959C39.046 26.5439 38.966 26.8599 38.934 27.2439ZM44.6066 30.9999V24.6879H45.6386L45.7466 25.5879H45.8306C45.9826 25.3559 46.1626 25.1639 46.3706 25.0119C46.5786 24.8599 46.8066 24.7439 47.0546 24.6639C47.3106 24.5839 47.5906 24.5439 47.8946 24.5439C48.2946 24.5439 48.6466 24.6159 48.9506 24.7599C49.2546 24.8959 49.4906 25.1199 49.6586 25.4319C49.8346 25.7439 49.9226 26.1639 49.9226 26.6919V30.9999H48.6746V26.8839C48.6746 26.6439 48.6426 26.4439 48.5786 26.2839C48.5226 26.1239 48.4386 25.9959 48.3266 25.8999C48.2146 25.8039 48.0826 25.7359 47.9306 25.6959C47.7786 25.6559 47.6106 25.6359 47.4266 25.6359C47.1386 25.6359 46.8746 25.7079 46.6346 25.8519C46.4026 25.9879 46.2146 26.1799 46.0706 26.4279C45.9266 26.6759 45.8546 26.9679 45.8546 27.3039V30.9999H44.6066Z" fill="#B8CED9"/>
<path d="M24.4166 65.3235C23.0687 65.3235 21.9724 65.0719 21.1277 64.5687C20.2831 64.0475 19.663 63.3555 19.2676 62.4929C18.8722 61.6123 18.6745 60.6328 18.6745 59.5544H22.0174C22.0174 60.2014 22.0982 60.7586 22.26 61.2259C22.4397 61.6752 22.7183 62.0256 23.0957 62.2772C23.4731 62.5109 23.9584 62.6277 24.5514 62.6277C25.4321 62.6277 26.0881 62.394 26.5194 61.9268C26.9687 61.4415 27.2652 60.7586 27.409 59.8779C27.5708 58.9793 27.6606 57.928 27.6786 56.7238C27.5887 56.8496 27.3641 57.0473 27.0046 57.3169C26.6632 57.5865 26.2049 57.8291 25.6298 58.0448C25.0726 58.2604 24.4256 58.3683 23.6888 58.3683C22.3948 58.3683 21.3344 58.1077 20.5077 57.5865C19.681 57.0473 19.0609 56.3195 18.6476 55.4029C18.2522 54.4683 18.0545 53.4259 18.0545 52.2757C18.0545 51.0177 18.3241 49.9393 18.8633 49.0407C19.4024 48.1242 20.1393 47.4232 21.0738 46.938C22.0084 46.4348 23.0687 46.1832 24.2549 46.1832C25.3152 46.1832 26.2678 46.3359 27.1125 46.6415C27.9572 46.947 28.676 47.4502 29.2691 48.1511C29.8622 48.8341 30.3115 49.7596 30.617 50.9278C30.9226 52.078 31.0753 53.5068 31.0753 55.2142C31.0753 57.1192 30.9226 58.7277 30.617 60.0397C30.3295 61.3337 29.8981 62.3671 29.323 63.1399C28.7659 63.9127 28.074 64.4698 27.2473 64.8113C26.4205 65.1528 25.477 65.3235 24.4166 65.3235ZM24.4436 55.7264C25.1265 55.7264 25.6927 55.5826 26.142 55.295C26.5913 54.9895 26.9238 54.5762 27.1394 54.055C27.3551 53.5338 27.4629 52.9407 27.4629 52.2757C27.4629 51.6287 27.3551 51.0536 27.1394 50.5504C26.9238 50.0292 26.5913 49.6248 26.142 49.3373C25.6927 49.0318 25.1265 48.879 24.4436 48.879C23.7607 48.879 23.1945 49.0318 22.7452 49.3373C22.3139 49.6428 21.9904 50.0562 21.7747 50.5774C21.5591 51.0806 21.4512 51.6557 21.4512 52.3027C21.4512 52.9677 21.5591 53.5607 21.7747 54.0819C21.9904 54.5851 22.3139 54.9895 22.7452 55.295C23.1945 55.5826 23.7607 55.7264 24.4436 55.7264ZM40.1655 65.3235C38.8715 65.3235 37.7303 65.0809 36.7418 64.5956C35.7713 64.1104 35.0165 63.4185 34.4773 62.5198C33.9382 61.6033 33.6686 60.516 33.6686 59.2579H37.0653C37.0653 59.9408 37.1911 60.5429 37.4427 61.0641C37.6943 61.5673 38.0538 61.9537 38.521 62.2233C38.9883 62.4929 39.5365 62.6277 40.1655 62.6277C40.7766 62.6277 41.3067 62.4929 41.756 62.2233C42.2053 61.9537 42.5558 61.5493 42.8074 61.0102C43.077 60.453 43.2118 59.7701 43.2118 58.9614C43.2118 58.2065 43.086 57.5865 42.8344 57.1012C42.5828 56.598 42.2323 56.2296 41.783 55.996C41.3337 55.7443 40.8215 55.6185 40.2464 55.6185C39.815 55.6185 39.4197 55.6904 39.0602 55.8342C38.7008 55.978 38.3863 56.1667 38.1167 56.4003C37.8471 56.616 37.6135 56.8676 37.4158 57.1552L34.2886 56.7508L35.0434 46.5067H45.665V49.499H37.901L37.6045 54.055C37.8561 53.8752 38.1436 53.7045 38.4671 53.5428C38.7906 53.381 39.168 53.2462 39.5994 53.1384C40.0487 53.0306 40.5609 52.9766 41.136 52.9766C42.1604 52.9766 43.086 53.1923 43.9127 53.6236C44.7394 54.055 45.3954 54.711 45.8806 55.5916C46.3659 56.4722 46.6085 57.5955 46.6085 58.9614C46.6085 60.3093 46.3479 61.4595 45.8267 62.412C45.3055 63.3645 44.5597 64.0924 43.5892 64.5956C42.6367 65.0809 41.4954 65.3235 40.1655 65.3235ZM55.6987 65.3235C54.6923 65.3235 53.7936 65.1797 53.0029 64.8922C52.2121 64.5866 51.5381 64.0744 50.981 63.3555C50.4239 62.6367 50.0015 61.6662 49.714 60.4441C49.4264 59.204 49.2826 57.6404 49.2826 55.7533C49.2826 53.8663 49.4264 52.3117 49.714 51.0896C50.0015 49.8495 50.4239 48.87 50.981 48.1511C51.5381 47.4322 52.2121 46.929 53.0029 46.6415C53.7936 46.3359 54.6923 46.1832 55.6987 46.1832C56.7051 46.1832 57.5948 46.3359 58.3676 46.6415C59.1583 46.929 59.8323 47.4322 60.3894 48.1511C60.9466 48.87 61.3689 49.8495 61.6565 51.0896C61.944 52.3117 62.0878 53.8663 62.0878 55.7533C62.0878 57.6404 61.944 59.204 61.6565 60.4441C61.3689 61.6662 60.9466 62.6367 60.3894 63.3555C59.8323 64.0744 59.1583 64.5866 58.3676 64.8922C57.5948 65.1797 56.7051 65.3235 55.6987 65.3235ZM55.6987 62.6277C56.5434 62.6277 57.1724 62.403 57.5858 61.9537C58.0171 61.4864 58.3047 60.8035 58.4484 59.9049C58.6102 58.9883 58.6911 57.8561 58.6911 56.5082V55.1063C58.6911 53.7225 58.6102 52.5723 58.4484 51.6557C58.3047 50.7211 58.0171 50.0292 57.5858 49.5799C57.1724 49.1126 56.5434 48.879 55.6987 48.879C54.872 48.879 54.234 49.1126 53.7847 49.5799C53.3533 50.0292 53.0568 50.7121 52.895 51.6287C52.7513 52.5273 52.6794 53.6596 52.6794 55.0255V56.4273C52.6794 57.7932 52.7513 58.9434 52.895 59.8779C53.0568 60.7945 53.3533 61.4864 53.7847 61.9537C54.234 62.403 54.872 62.6277 55.6987 62.6277ZM74.4182 65.2426C73.3534 65.2426 72.4637 65.0472 71.7494 64.6563C71.035 64.2519 70.4958 63.6386 70.1319 62.8164C69.7814 61.9942 69.6062 60.9495 69.6062 59.6825C69.6062 58.4155 69.7881 57.3776 70.1521 56.5688C70.516 55.7466 71.0552 55.1333 71.7696 54.7289C72.4974 54.3245 73.3871 54.1224 74.4384 54.1224C75.1663 54.1224 75.7998 54.2167 76.339 54.4054C76.8782 54.5807 77.3364 54.8502 77.7139 55.2142C78.0913 55.5646 78.3676 56.0027 78.5428 56.5284C78.7315 57.0541 78.8259 57.6539 78.8259 58.3278H76.7029C76.7029 57.7617 76.6221 57.2967 76.4603 56.9328C76.2986 56.5688 76.0492 56.2992 75.7122 56.124C75.3752 55.9353 74.9372 55.8409 74.398 55.8409C73.8319 55.8409 73.3534 55.9757 72.9625 56.2453C72.5716 56.5014 72.275 56.8991 72.0729 57.4382C71.8707 57.9639 71.7696 58.6581 71.7696 59.5207V59.8645C71.7696 60.6867 71.8639 61.3741 72.0526 61.9268C72.2548 62.4659 72.5514 62.8703 72.9423 63.1399C73.3466 63.396 73.8588 63.524 74.4789 63.524C75.018 63.524 75.4494 63.4297 75.7729 63.241C76.1098 63.0388 76.3592 62.7557 76.521 62.3918C76.6962 62.0144 76.7838 61.5628 76.7838 61.0371H78.8259C78.8259 61.6707 78.7315 62.2435 78.5428 62.7557C78.3676 63.2679 78.0913 63.7127 77.7139 64.0902C77.3499 64.4541 76.8916 64.7372 76.339 64.9393C75.7863 65.1415 75.1461 65.2426 74.4182 65.2426ZM83.6425 65.2426C83.3055 65.2426 82.9416 65.2022 82.5507 65.1213C82.1598 65.0404 81.7891 64.8922 81.4387 64.6765C81.1017 64.4608 80.8254 64.1643 80.6097 63.7869C80.394 63.396 80.2862 62.8905 80.2862 62.2705C80.2862 61.5426 80.4547 60.9428 80.7917 60.471C81.1287 59.9993 81.6004 59.6286 82.207 59.359C82.8135 59.0894 83.5347 58.9007 84.3704 58.7929C85.2196 58.685 86.1429 58.6311 87.1403 58.6311V57.5798C87.1403 57.2293 87.0797 56.9193 86.9584 56.6497C86.8505 56.3801 86.6416 56.1712 86.3316 56.0229C86.0351 55.8746 85.6037 55.8005 85.0376 55.8005C84.4715 55.8005 84.0267 55.8746 83.7032 56.0229C83.3931 56.1577 83.1707 56.3329 83.0359 56.5486C82.9146 56.7508 82.854 56.9732 82.854 57.2158V57.5191H80.8321C80.8186 57.4517 80.8119 57.3843 80.8119 57.3169C80.8119 57.2495 80.8119 57.1686 80.8119 57.0743C80.8119 56.4408 80.9871 55.9083 81.3376 55.477C81.7015 55.0322 82.207 54.6952 82.854 54.4661C83.501 54.2369 84.2491 54.1224 85.0983 54.1224C86.0148 54.1224 86.7764 54.2572 87.383 54.5267C88.003 54.7828 88.468 55.1535 88.778 55.6388C89.0881 56.124 89.2431 56.7103 89.2431 57.3978V62.7962C89.2431 63.0523 89.3037 63.2342 89.425 63.3421C89.5598 63.4499 89.7148 63.5038 89.8901 63.5038H90.6179V64.9191C90.4562 64.9865 90.254 65.0539 90.0114 65.1213C89.7688 65.1887 89.4857 65.2224 89.1622 65.2224C88.7983 65.2224 88.4882 65.155 88.2321 65.0202C87.9895 64.8989 87.7873 64.7237 87.6256 64.4945C87.4773 64.2519 87.3762 63.9823 87.3223 63.6858H87.201C86.9584 63.9958 86.6618 64.2721 86.3114 64.5148C85.9744 64.7439 85.5835 64.9191 85.1387 65.0404C84.6939 65.1752 84.1952 65.2426 83.6425 65.2426ZM84.2289 63.5038C84.6467 63.5038 85.0309 63.4432 85.3813 63.3219C85.7453 63.1871 86.0553 63.0051 86.3114 62.7759C86.5675 62.5333 86.7697 62.2503 86.9179 61.9268C87.0662 61.5898 87.1403 61.2259 87.1403 60.835V60.1273C86.2103 60.1273 85.3948 60.1812 84.6939 60.2891C83.993 60.3969 83.4471 60.5991 83.0562 60.8956C82.6653 61.1787 82.4698 61.5763 82.4698 62.0885C82.4698 62.3985 82.5372 62.6614 82.672 62.877C82.8068 63.0792 83.009 63.2342 83.2786 63.3421C83.5482 63.4499 83.8649 63.5038 84.2289 63.5038ZM92.0697 65V50.3819H94.1725V65H92.0697Z" fill="white"/>
<circle opacity="0.5" cx="151.603" cy="32.0155" r="20.2187" fill="#0A1B22"/>
<path d="M157.4 31.6165V23.9082C157.4 23.6847 157.312 23.4705 157.154 23.3125C156.996 23.1545 156.781 23.0657 156.558 23.0657C156.334 23.0657 156.12 23.1545 155.962 23.3125C155.804 23.4705 155.715 23.6847 155.715 23.9082V31.6165C154.986 31.8284 154.345 32.2715 153.889 32.8794C153.433 33.4871 153.187 34.2266 153.188 34.9863C153.188 36.7133 154.469 39.8725 156.558 39.8725C158.647 39.8725 159.928 36.7133 159.928 34.9863C159.929 34.2266 159.683 33.4871 159.227 32.8794C158.771 32.2715 158.13 31.8284 157.4 31.6165ZM156.558 38.2297C155.884 38.2297 154.873 36.3174 154.873 35.0284C154.852 34.5597 155.018 34.1018 155.334 33.7546C155.649 33.4074 156.089 33.1991 156.558 33.1751C157.026 33.1991 157.467 33.4074 157.782 33.7546C158.098 34.1018 158.263 34.5597 158.243 35.0284C158.243 36.3174 157.232 38.2297 156.558 38.2297ZM150.661 23.0657C150.437 23.0657 150.223 23.1545 150.065 23.3125C149.907 23.4705 149.818 23.6847 149.818 23.9082V28.5079L148.976 29.0724V23.9082C148.976 23.6847 148.887 23.4705 148.729 23.3125C148.571 23.1545 148.357 23.0657 148.133 23.0657C147.91 23.0657 147.696 23.1545 147.538 23.3125C147.38 23.4705 147.291 23.6847 147.291 23.9082V29.0724L146.449 28.5079V23.9082C146.449 23.6847 146.36 23.4705 146.202 23.3125C146.044 23.1545 145.83 23.0657 145.606 23.0657C145.383 23.0657 145.168 23.1545 145.01 23.3125C144.852 23.4705 144.764 23.6847 144.764 23.9082V28.9628C144.764 29.1016 144.799 29.238 144.865 29.36C144.932 29.482 145.027 29.5858 145.143 29.6621L147.291 31.1027V39.0722C147.291 39.2956 147.38 39.5099 147.538 39.6679C147.696 39.8258 147.91 39.9146 148.133 39.9146C148.357 39.9146 148.571 39.8258 148.729 39.6679C148.887 39.5099 148.976 39.2956 148.976 39.0722V31.1027L151.124 29.6621C151.24 29.5858 151.335 29.482 151.401 29.36C151.467 29.238 151.502 29.1016 151.503 28.9628V23.9082C151.503 23.6847 151.414 23.4705 151.256 23.3125C151.098 23.1545 150.884 23.0657 150.661 23.0657Z" fill="#B8CED9"/>
</svg>
