<svg width="413" height="165" viewBox="0 0 413 165" fill="none" xmlns="http://www.w3.org/2000/svg">
<g clip-path="url(#clip0_24_26)">
<rect width="413" height="165" rx="13.4008" fill="#162A32"/>
<path d="M20.8352 37.9551V29.7231H24.0152C24.8632 29.7231 25.5872 29.8711 26.1872 30.1671C26.7872 30.4551 27.2472 30.9031 27.5672 31.5111C27.8952 32.1111 28.0592 32.8871 28.0592 33.8391C28.0592 34.7831 27.8952 35.5591 27.5672 36.1671C27.2472 36.7751 26.7872 37.2271 26.1872 37.5231C25.5872 37.8111 24.8632 37.9551 24.0152 37.9551H20.8352ZM22.1792 36.8031H24.0032C24.4272 36.8031 24.8032 36.7471 25.1312 36.6351C25.4672 36.5231 25.7472 36.3511 25.9712 36.1191C26.2032 35.8871 26.3752 35.5951 26.4872 35.2431C26.6072 34.8831 26.6672 34.4591 26.6672 33.9711V33.7191C26.6672 33.2231 26.6072 32.7991 26.4872 32.4471C26.3752 32.0871 26.2032 31.7911 25.9712 31.5591C25.7472 31.3271 25.4672 31.1551 25.1312 31.0431C24.8032 30.9311 24.4272 30.8751 24.0032 30.8751H22.1792V36.8031ZM31.0405 38.0991C30.8405 38.0991 30.6245 38.0751 30.3925 38.0271C30.1605 37.9791 29.9405 37.8911 29.7325 37.7631C29.5325 37.6351 29.3685 37.4591 29.2405 37.2351C29.1125 37.0031 29.0485 36.7031 29.0485 36.3351C29.0485 35.9031 29.1485 35.5471 29.3485 35.2671C29.5485 34.9871 29.8285 34.7671 30.1885 34.6071C30.5485 34.4471 30.9765 34.3351 31.4725 34.2711C31.9765 34.2071 32.5245 34.1751 33.1165 34.1751V33.5511C33.1165 33.3431 33.0805 33.1591 33.0085 32.9991C32.9445 32.8391 32.8205 32.7151 32.6365 32.6271C32.4605 32.5391 32.2045 32.4951 31.8685 32.4951C31.5325 32.4951 31.2685 32.5391 31.0765 32.6271C30.8925 32.7071 30.7605 32.8111 30.6805 32.9391C30.6085 33.0591 30.5725 33.1911 30.5725 33.3351V33.5151H29.3725C29.3645 33.4751 29.3605 33.4351 29.3605 33.3951C29.3605 33.3551 29.3605 33.3071 29.3605 33.2511C29.3605 32.8751 29.4645 32.5591 29.6725 32.3031C29.8885 32.0391 30.1885 31.8391 30.5725 31.7031C30.9565 31.5671 31.4005 31.4991 31.9045 31.4991C32.4485 31.4991 32.9005 31.5791 33.2605 31.7391C33.6285 31.8911 33.9045 32.1111 34.0885 32.3991C34.2725 32.6871 34.3645 33.0351 34.3645 33.4431V36.6471C34.3645 36.7991 34.4005 36.9071 34.4725 36.9711C34.5525 37.0351 34.6445 37.0671 34.7485 37.0671H35.1805V37.9071C35.0845 37.9471 34.9645 37.9871 34.8205 38.0271C34.6765 38.0671 34.5085 38.0871 34.3165 38.0871C34.1005 38.0871 33.9165 38.0471 33.7645 37.9671C33.6205 37.8951 33.5005 37.7911 33.4045 37.6551C33.3165 37.5111 33.2565 37.3511 33.2245 37.1751H33.1525C33.0085 37.3591 32.8325 37.5231 32.6245 37.6671C32.4245 37.8031 32.1925 37.9071 31.9285 37.9791C31.6645 38.0591 31.3685 38.0991 31.0405 38.0991ZM31.3885 37.0671C31.6365 37.0671 31.8645 37.0311 32.0725 36.9591C32.2885 36.8791 32.4725 36.7711 32.6245 36.6351C32.7765 36.4911 32.8965 36.3231 32.9845 36.1311C33.0725 35.9311 33.1165 35.7151 33.1165 35.4831V35.0631C32.5645 35.0631 32.0805 35.0951 31.6645 35.1591C31.2485 35.2231 30.9245 35.3431 30.6925 35.5191C30.4605 35.6871 30.3445 35.9231 30.3445 36.2271C30.3445 36.4111 30.3845 36.5671 30.4645 36.6951C30.5445 36.8151 30.6645 36.9071 30.8245 36.9711C30.9845 37.0351 31.1725 37.0671 31.3885 37.0671ZM36.0422 30.5511V29.2791H37.2902V30.5511H36.0422ZM36.0422 37.9551V31.6431H37.2902V37.9551H36.0422ZM38.9015 37.9551V29.2791H40.1495V37.9551H38.9015ZM42.4449 40.1391C42.2049 40.1391 42.0049 40.1191 41.8449 40.0791C41.6849 40.0471 41.5849 40.0271 41.5449 40.0191V39.1191H42.1449C42.3209 39.1191 42.4969 39.0791 42.6729 38.9991C42.8569 38.9191 43.0209 38.7911 43.1649 38.6151C43.3089 38.4391 43.4289 38.2191 43.5249 37.9551L41.0649 31.6431H42.3729L43.5969 34.7871C43.6529 34.9311 43.7129 35.1111 43.7769 35.3271C43.8489 35.5431 43.9169 35.7631 43.9809 35.9871C44.0529 36.2111 44.1129 36.4111 44.1609 36.5871H44.2209C44.2609 36.4671 44.3009 36.3311 44.3409 36.1791C44.3889 36.0191 44.4369 35.8551 44.4849 35.6871C44.5329 35.5191 44.5809 35.3591 44.6289 35.2071C44.6769 35.0471 44.7169 34.9111 44.7489 34.7991L45.7689 31.6431H47.0409L44.9049 37.7151C44.7849 38.0511 44.6529 38.3671 44.5089 38.6631C44.3649 38.9591 44.1969 39.2151 44.0049 39.4311C43.8209 39.6551 43.6009 39.8271 43.3449 39.9471C43.0889 40.0751 42.7889 40.1391 42.4449 40.1391ZM52.9174 38.0991C52.2854 38.0991 51.7574 37.9831 51.3334 37.7511C50.9094 37.5111 50.5894 37.1471 50.3734 36.6591C50.1654 36.1711 50.0614 35.5511 50.0614 34.7991C50.0614 34.0471 50.1694 33.4311 50.3854 32.9511C50.6014 32.4631 50.9214 32.0991 51.3454 31.8591C51.7774 31.6191 52.3054 31.4991 52.9294 31.4991C53.3614 31.4991 53.7374 31.5551 54.0574 31.6671C54.3774 31.7711 54.6494 31.9311 54.8734 32.1471C55.0974 32.3551 55.2614 32.6151 55.3654 32.9271C55.4774 33.2391 55.5334 33.5951 55.5334 33.9951H54.2734C54.2734 33.6591 54.2254 33.3831 54.1294 33.1671C54.0334 32.9511 53.8854 32.7911 53.6854 32.6871C53.4854 32.5751 53.2254 32.5191 52.9054 32.5191C52.5694 32.5191 52.2854 32.5991 52.0534 32.7591C51.8214 32.9111 51.6454 33.1471 51.5254 33.4671C51.4054 33.7791 51.3454 34.1911 51.3454 34.7031V34.9071C51.3454 35.3951 51.4014 35.8031 51.5134 36.1311C51.6334 36.4511 51.8094 36.6911 52.0414 36.8511C52.2814 37.0031 52.5854 37.0791 52.9534 37.0791C53.2734 37.0791 53.5294 37.0231 53.7214 36.9111C53.9214 36.7911 54.0694 36.6231 54.1654 36.4071C54.2694 36.1831 54.3214 35.9151 54.3214 35.6031H55.5334C55.5334 35.9791 55.4774 36.3191 55.3654 36.6231C55.2614 36.9271 55.0974 37.1911 54.8734 37.4151C54.6574 37.6311 54.3854 37.7991 54.0574 37.9191C53.7294 38.0391 53.3494 38.0991 52.9174 38.0991ZM58.3921 38.0991C58.1921 38.0991 57.9761 38.0751 57.7441 38.0271C57.5121 37.9791 57.2921 37.8911 57.0841 37.7631C56.8841 37.6351 56.7201 37.4591 56.5921 37.2351C56.4641 37.0031 56.4001 36.7031 56.4001 36.3351C56.4001 35.9031 56.5001 35.5471 56.7001 35.2671C56.9001 34.9871 57.1801 34.7671 57.5401 34.6071C57.9001 34.4471 58.3281 34.3351 58.8241 34.2711C59.3281 34.2071 59.8761 34.1751 60.4681 34.1751V33.5511C60.4681 33.3431 60.4321 33.1591 60.3601 32.9991C60.2961 32.8391 60.1721 32.7151 59.9881 32.6271C59.8121 32.5391 59.5561 32.4951 59.2201 32.4951C58.8841 32.4951 58.6201 32.5391 58.4281 32.6271C58.2441 32.7071 58.1121 32.8111 58.0321 32.9391C57.9601 33.0591 57.9241 33.1911 57.9241 33.3351V33.5151H56.7241C56.7161 33.4751 56.7121 33.4351 56.7121 33.3951C56.7121 33.3551 56.7121 33.3071 56.7121 33.2511C56.7121 32.8751 56.8161 32.5591 57.0241 32.3031C57.2401 32.0391 57.5401 31.8391 57.9241 31.7031C58.3081 31.5671 58.7521 31.4991 59.2561 31.4991C59.8001 31.4991 60.2521 31.5791 60.6121 31.7391C60.9801 31.8911 61.2561 32.1111 61.4401 32.3991C61.6241 32.6871 61.7161 33.0351 61.7161 33.4431V36.6471C61.7161 36.7991 61.7521 36.9071 61.8241 36.9711C61.9041 37.0351 61.9961 37.0671 62.1001 37.0671H62.5321V37.9071C62.4361 37.9471 62.3161 37.9871 62.1721 38.0271C62.0281 38.0671 61.8601 38.0871 61.6681 38.0871C61.4521 38.0871 61.2681 38.0471 61.1161 37.9671C60.9721 37.8951 60.8521 37.7911 60.7561 37.6551C60.6681 37.5111 60.6081 37.3511 60.5761 37.1751H60.5041C60.3601 37.3591 60.1841 37.5231 59.9761 37.6671C59.7761 37.8031 59.5441 37.9071 59.2801 37.9791C59.0161 38.0591 58.7201 38.0991 58.3921 38.0991ZM58.7401 37.0671C58.9881 37.0671 59.2161 37.0311 59.4241 36.9591C59.6401 36.8791 59.8241 36.7711 59.9761 36.6351C60.1281 36.4911 60.2481 36.3231 60.3361 36.1311C60.4241 35.9311 60.4681 35.7151 60.4681 35.4831V35.0631C59.9161 35.0631 59.4321 35.0951 59.0161 35.1591C58.6001 35.2231 58.2761 35.3431 58.0441 35.5191C57.8121 35.6871 57.6961 35.9231 57.6961 36.2271C57.6961 36.4111 57.7361 36.5671 57.8161 36.6951C57.8961 36.8151 58.0161 36.9071 58.1761 36.9711C58.3361 37.0351 58.5241 37.0671 58.7401 37.0671ZM63.3937 37.9551V29.2791H64.6417V37.9551H63.3937ZM68.9411 38.0991C68.2851 38.0991 67.7291 37.9831 67.2731 37.7511C66.8251 37.5111 66.4851 37.1471 66.2531 36.6591C66.0291 36.1711 65.9171 35.5511 65.9171 34.7991C65.9171 34.0391 66.0291 33.4191 66.2531 32.9391C66.4851 32.4511 66.8251 32.0911 67.2731 31.8591C67.7291 31.6191 68.2851 31.4991 68.9411 31.4991C69.6131 31.4991 70.1731 31.6191 70.6211 31.8591C71.0691 32.0911 71.4051 32.4511 71.6291 32.9391C71.8611 33.4191 71.9771 34.0391 71.9771 34.7991C71.9771 35.5511 71.8611 36.1711 71.6291 36.6591C71.4051 37.1471 71.0691 37.5111 70.6211 37.7511C70.1731 37.9831 69.6131 38.0991 68.9411 38.0991ZM68.9411 37.0671C69.3411 37.0671 69.6691 36.9911 69.9251 36.8391C70.1811 36.6791 70.3691 36.4391 70.4891 36.1191C70.6171 35.7991 70.6811 35.3951 70.6811 34.9071V34.6911C70.6811 34.2031 70.6171 33.7991 70.4891 33.4791C70.3691 33.1591 70.1811 32.9231 69.9251 32.7711C69.6691 32.6111 69.3411 32.5311 68.9411 32.5311C68.5491 32.5311 68.2251 32.6111 67.9691 32.7711C67.7131 32.9231 67.5211 33.1591 67.3931 33.4791C67.2731 33.7991 67.2131 34.2031 67.2131 34.6911V34.9071C67.2131 35.3951 67.2731 35.7991 67.3931 36.1191C67.5211 36.4391 67.7131 36.6791 67.9691 36.8391C68.2251 36.9911 68.5491 37.0671 68.9411 37.0671ZM73.2492 37.9551V31.6431H74.2812L74.3892 32.6631H74.4612C74.5332 32.4631 74.6252 32.2751 74.7372 32.0991C74.8572 31.9231 75.0092 31.7791 75.1932 31.6671C75.3852 31.5551 75.6172 31.4991 75.8892 31.4991C76.0172 31.4991 76.1292 31.5111 76.2252 31.5351C76.3292 31.5591 76.4092 31.5791 76.4652 31.5951V32.7711H76.0452C75.7892 32.7711 75.5612 32.8111 75.3612 32.8911C75.1692 32.9711 75.0052 33.0911 74.8692 33.2511C74.7412 33.4031 74.6452 33.5911 74.5812 33.8151C74.5252 34.0391 74.4972 34.2911 74.4972 34.5711V37.9551H73.2492ZM77.3976 30.5511V29.2791H78.6456V30.5511H77.3976ZM77.3976 37.9551V31.6431H78.6456V37.9551H77.3976ZM82.873 38.0991C82.225 38.0991 81.681 37.9831 81.241 37.7511C80.809 37.5111 80.481 37.1471 80.257 36.6591C80.033 36.1711 79.921 35.5511 79.921 34.7991C79.921 34.0391 80.033 33.4191 80.257 32.9391C80.481 32.4511 80.813 32.0911 81.253 31.8591C81.693 31.6191 82.241 31.4991 82.897 31.4991C83.497 31.4991 83.997 31.6151 84.397 31.8471C84.805 32.0711 85.113 32.4151 85.321 32.8791C85.529 33.3431 85.633 33.9271 85.633 34.6311V35.1111H81.205C81.221 35.5591 81.289 35.9351 81.409 36.2391C81.529 36.5351 81.709 36.7551 81.949 36.8991C82.197 37.0351 82.509 37.1031 82.885 37.1031C83.117 37.1031 83.325 37.0751 83.509 37.0191C83.693 36.9551 83.849 36.8671 83.977 36.7551C84.105 36.6351 84.205 36.4951 84.277 36.3351C84.349 36.1671 84.385 35.9791 84.385 35.7711H85.609C85.609 36.1471 85.545 36.4791 85.417 36.7671C85.289 37.0551 85.101 37.2991 84.853 37.4991C84.613 37.6911 84.325 37.8391 83.989 37.9431C83.653 38.0471 83.281 38.0991 82.873 38.0991ZM81.229 34.1991H84.325C84.325 33.8871 84.289 33.6271 84.217 33.4191C84.153 33.2031 84.057 33.0271 83.929 32.8911C83.801 32.7551 83.649 32.6591 83.473 32.6031C83.297 32.5391 83.097 32.5071 82.873 32.5071C82.537 32.5071 82.249 32.5671 82.009 32.6871C81.777 32.8071 81.597 32.9951 81.469 33.2511C81.341 33.4991 81.261 33.8151 81.229 34.1991ZM89.2295 38.0991C88.7895 38.0991 88.4015 38.0511 88.0655 37.9551C87.7295 37.8591 87.4495 37.7271 87.2255 37.5591C87.0015 37.3911 86.8295 37.1911 86.7095 36.9591C86.5975 36.7191 86.5415 36.4551 86.5415 36.1671C86.5415 36.1271 86.5415 36.0911 86.5415 36.0591C86.5495 36.0271 86.5535 35.9991 86.5535 35.9751H87.7895C87.7895 35.9991 87.7895 36.0231 87.7895 36.0471C87.7895 36.0631 87.7895 36.0831 87.7895 36.1071C87.7895 36.3551 87.8575 36.5551 87.9935 36.7071C88.1295 36.8511 88.3095 36.9551 88.5335 37.0191C88.7655 37.0751 89.0175 37.1031 89.2895 37.1031C89.5295 37.1031 89.7495 37.0751 89.9495 37.0191C90.1575 36.9551 90.3255 36.8631 90.4535 36.7431C90.5895 36.6231 90.6575 36.4711 90.6575 36.2871C90.6575 36.0471 90.5735 35.8631 90.4055 35.7351C90.2375 35.6071 90.0175 35.5071 89.7455 35.4351C89.4735 35.3551 89.1895 35.2711 88.8935 35.1831C88.6295 35.1111 88.3655 35.0351 88.1015 34.9551C87.8455 34.8671 87.6135 34.7551 87.4055 34.6191C87.1975 34.4831 87.0295 34.3111 86.9015 34.1031C86.7735 33.8951 86.7095 33.6351 86.7095 33.3231C86.7095 33.0271 86.7735 32.7671 86.9015 32.5431C87.0295 32.3191 87.2055 32.1311 87.4295 31.9791C87.6615 31.8271 87.9335 31.7111 88.2455 31.6311C88.5655 31.5511 88.9135 31.5111 89.2895 31.5111C89.6815 31.5111 90.0295 31.5551 90.3335 31.6431C90.6375 31.7231 90.8935 31.8391 91.1015 31.9911C91.3175 32.1431 91.4815 32.3271 91.5935 32.5431C91.7055 32.7511 91.7615 32.9751 91.7615 33.2151C91.7615 33.2631 91.7575 33.3151 91.7495 33.3711C91.7495 33.4191 91.7495 33.4511 91.7495 33.4671H90.5255V33.3591C90.5255 33.1991 90.4815 33.0551 90.3935 32.9271C90.3055 32.7991 90.1655 32.6951 89.9735 32.6151C89.7895 32.5351 89.5415 32.4951 89.2295 32.4951C89.0215 32.4951 88.8375 32.5151 88.6775 32.5551C88.5175 32.5871 88.3855 32.6351 88.2815 32.6991C88.1775 32.7631 88.0975 32.8391 88.0415 32.9271C87.9935 33.0151 87.9695 33.1151 87.9695 33.2271C87.9695 33.4111 88.0335 33.5551 88.1615 33.6591C88.2975 33.7551 88.4735 33.8391 88.6895 33.9111C88.9055 33.9751 89.1375 34.0471 89.3855 34.1271C89.6735 34.2071 89.9655 34.2911 90.2615 34.3791C90.5575 34.4591 90.8295 34.5631 91.0775 34.6911C91.3335 34.8191 91.5375 34.9951 91.6895 35.2191C91.8495 35.4431 91.9295 35.7431 91.9295 36.1191C91.9295 36.4631 91.8615 36.7631 91.7255 37.0191C91.5895 37.2751 91.3975 37.4831 91.1495 37.6431C90.9095 37.7951 90.6255 37.9071 90.2975 37.9791C89.9695 38.0591 89.6135 38.0991 89.2295 38.0991ZM96.7115 40.1391C96.4235 40.1391 96.1515 40.0791 95.8955 39.9591C95.6475 39.8391 95.4475 39.6671 95.2955 39.4431C95.1435 39.2191 95.0675 38.9471 95.0675 38.6271C95.0675 38.2751 95.1635 37.9911 95.3555 37.7751C95.5555 37.5511 95.7875 37.3831 96.0515 37.2711C95.8595 37.1831 95.7035 37.0551 95.5835 36.8871C95.4715 36.7191 95.4155 36.5271 95.4155 36.3111C95.4155 36.0151 95.5235 35.7751 95.7395 35.5911C95.9555 35.4071 96.2075 35.2871 96.4955 35.2311C96.2155 35.0471 95.9955 34.8151 95.8355 34.5351C95.6835 34.2551 95.6075 33.9391 95.6075 33.5871C95.6075 33.1631 95.7075 32.7991 95.9075 32.4951C96.1075 32.1831 96.4035 31.9391 96.7955 31.7631C97.1955 31.5871 97.6795 31.4991 98.2475 31.4991C98.4955 31.4991 98.7275 31.5191 98.9435 31.5591C99.1675 31.5911 99.3675 31.6391 99.5435 31.7031C99.8235 31.5591 100.023 31.3871 100.143 31.1871C100.263 30.9791 100.335 30.7871 100.359 30.6111H101.583C101.583 30.8751 101.527 31.1151 101.415 31.3311C101.311 31.5391 101.163 31.7151 100.971 31.8591C100.787 31.9951 100.563 32.0911 100.299 32.1471C100.499 32.3311 100.647 32.5471 100.743 32.7951C100.847 33.0351 100.899 33.2991 100.899 33.5871C100.899 34.0031 100.803 34.3671 100.611 34.6791C100.419 34.9911 100.127 35.2351 99.7355 35.4111C99.3515 35.5871 98.8755 35.6751 98.3075 35.6751H97.3235C97.1315 35.6751 96.9755 35.7151 96.8555 35.7951C96.7435 35.8751 96.6875 35.9951 96.6875 36.1551C96.6875 36.2911 96.7435 36.4031 96.8555 36.4911C96.9675 36.5791 97.1155 36.6231 97.2995 36.6231H99.9635C100.427 36.6231 100.811 36.7791 101.115 37.0911C101.419 37.3951 101.571 37.7871 101.571 38.2671C101.571 38.6191 101.479 38.9351 101.295 39.2151C101.119 39.5031 100.867 39.7271 100.539 39.8871C100.219 40.0551 99.8475 40.1391 99.4235 40.1391H96.7115ZM97.1195 39.2151H99.4115C99.5795 39.2151 99.7315 39.1831 99.8675 39.1191C100.003 39.0551 100.111 38.9631 100.191 38.8431C100.271 38.7311 100.311 38.6031 100.311 38.4591C100.311 38.2191 100.235 38.0311 100.083 37.8951C99.9395 37.7591 99.7595 37.6911 99.5435 37.6911H97.1195C96.8955 37.6911 96.7075 37.7671 96.5555 37.9191C96.4035 38.0631 96.3275 38.2431 96.3275 38.4591C96.3275 38.6831 96.3995 38.8631 96.5435 38.9991C96.6955 39.1431 96.8875 39.2151 97.1195 39.2151ZM98.2595 34.7751C98.7315 34.7751 99.0835 34.6711 99.3155 34.4631C99.5475 34.2471 99.6635 33.9551 99.6635 33.5871C99.6635 33.2111 99.5475 32.9231 99.3155 32.7231C99.0835 32.5151 98.7315 32.4111 98.2595 32.4111C97.7875 32.4111 97.4355 32.5151 97.2035 32.7231C96.9715 32.9231 96.8555 33.2111 96.8555 33.5871C96.8555 33.8271 96.9035 34.0391 96.9995 34.2231C97.1035 34.3991 97.2595 34.5351 97.4675 34.6311C97.6835 34.7271 97.9475 34.7751 98.2595 34.7751ZM105.222 38.0991C104.566 38.0991 104.01 37.9831 103.554 37.7511C103.106 37.5111 102.766 37.1471 102.534 36.6591C102.31 36.1711 102.198 35.5511 102.198 34.7991C102.198 34.0391 102.31 33.4191 102.534 32.9391C102.766 32.4511 103.106 32.0911 103.554 31.8591C104.01 31.6191 104.566 31.4991 105.222 31.4991C105.894 31.4991 106.454 31.6191 106.902 31.8591C107.35 32.0911 107.686 32.4511 107.91 32.9391C108.142 33.4191 108.258 34.0391 108.258 34.7991C108.258 35.5511 108.142 36.1711 107.91 36.6591C107.686 37.1471 107.35 37.5111 106.902 37.7511C106.454 37.9831 105.894 38.0991 105.222 38.0991ZM105.222 37.0671C105.622 37.0671 105.95 36.9911 106.206 36.8391C106.462 36.6791 106.65 36.4391 106.77 36.1191C106.898 35.7991 106.962 35.3951 106.962 34.9071V34.6911C106.962 34.2031 106.898 33.7991 106.77 33.4791C106.65 33.1591 106.462 32.9231 106.206 32.7711C105.95 32.6111 105.622 32.5311 105.222 32.5311C104.83 32.5311 104.506 32.6111 104.25 32.7711C103.994 32.9231 103.802 33.1591 103.674 33.4791C103.554 33.7991 103.494 34.2031 103.494 34.6911V34.9071C103.494 35.3951 103.554 35.7991 103.674 36.1191C103.802 36.4391 103.994 36.6791 104.25 36.8391C104.506 36.9911 104.83 37.0671 105.222 37.0671ZM111.126 38.0991C110.926 38.0991 110.71 38.0751 110.478 38.0271C110.246 37.9791 110.026 37.8911 109.818 37.7631C109.618 37.6351 109.454 37.4591 109.326 37.2351C109.198 37.0031 109.134 36.7031 109.134 36.3351C109.134 35.9031 109.234 35.5471 109.434 35.2671C109.634 34.9871 109.914 34.7671 110.274 34.6071C110.634 34.4471 111.062 34.3351 111.558 34.2711C112.062 34.2071 112.61 34.1751 113.202 34.1751V33.5511C113.202 33.3431 113.166 33.1591 113.094 32.9991C113.03 32.8391 112.906 32.7151 112.722 32.6271C112.546 32.5391 112.29 32.4951 111.954 32.4951C111.618 32.4951 111.354 32.5391 111.162 32.6271C110.978 32.7071 110.846 32.8111 110.766 32.9391C110.694 33.0591 110.658 33.1911 110.658 33.3351V33.5151H109.458C109.45 33.4751 109.446 33.4351 109.446 33.3951C109.446 33.3551 109.446 33.3071 109.446 33.2511C109.446 32.8751 109.55 32.5591 109.758 32.3031C109.974 32.0391 110.274 31.8391 110.658 31.7031C111.042 31.5671 111.486 31.4991 111.99 31.4991C112.534 31.4991 112.986 31.5791 113.346 31.7391C113.714 31.8911 113.99 32.1111 114.174 32.3991C114.358 32.6871 114.45 33.0351 114.45 33.4431V36.6471C114.45 36.7991 114.486 36.9071 114.558 36.9711C114.638 37.0351 114.73 37.0671 114.834 37.0671H115.266V37.9071C115.17 37.9471 115.05 37.9871 114.906 38.0271C114.762 38.0671 114.594 38.0871 114.402 38.0871C114.186 38.0871 114.002 38.0471 113.85 37.9671C113.706 37.8951 113.586 37.7911 113.49 37.6551C113.402 37.5111 113.342 37.3511 113.31 37.1751H113.238C113.094 37.3591 112.918 37.5231 112.71 37.6671C112.51 37.8031 112.278 37.9071 112.014 37.9791C111.75 38.0591 111.454 38.0991 111.126 38.0991ZM111.474 37.0671C111.722 37.0671 111.95 37.0311 112.158 36.9591C112.374 36.8791 112.558 36.7711 112.71 36.6351C112.862 36.4911 112.982 36.3231 113.07 36.1311C113.158 35.9311 113.202 35.7151 113.202 35.4831V35.0631C112.65 35.0631 112.166 35.0951 111.75 35.1591C111.334 35.2231 111.01 35.3431 110.778 35.5191C110.546 35.6871 110.43 35.9231 110.43 36.2271C110.43 36.4111 110.47 36.5671 110.55 36.6951C110.63 36.8151 110.75 36.9071 110.91 36.9711C111.07 37.0351 111.258 37.0671 111.474 37.0671ZM116.128 37.9551V29.2791H117.376V37.9551H116.128Z" fill="#B8CED9"/>
<path d="M20.8353 112.088V103.856H25.1673C25.7513 103.856 26.2353 103.96 26.6193 104.168C27.0033 104.376 27.2913 104.668 27.4833 105.044C27.6753 105.412 27.7713 105.844 27.7713 106.34C27.7713 106.892 27.6473 107.372 27.3993 107.78C27.1513 108.188 26.7993 108.488 26.3433 108.68L28.0593 112.088H26.5953L25.0353 108.908H22.1793V112.088H20.8353ZM22.1793 107.78H25.0593C25.4913 107.78 25.8233 107.652 26.0553 107.396C26.2953 107.14 26.4153 106.784 26.4153 106.328C26.4153 106.048 26.3633 105.812 26.2593 105.62C26.1553 105.42 26.0033 105.268 25.8033 105.164C25.6033 105.06 25.3553 105.008 25.0593 105.008H22.1793V107.78ZM31.8263 112.232C31.1783 112.232 30.6343 112.116 30.1943 111.884C29.7623 111.644 29.4343 111.28 29.2103 110.792C28.9863 110.304 28.8743 109.684 28.8743 108.932C28.8743 108.172 28.9863 107.552 29.2103 107.072C29.4343 106.584 29.7663 106.224 30.2063 105.992C30.6463 105.752 31.1943 105.632 31.8503 105.632C32.4503 105.632 32.9503 105.748 33.3503 105.98C33.7583 106.204 34.0663 106.548 34.2743 107.012C34.4823 107.476 34.5863 108.06 34.5863 108.764V109.244H30.1583C30.1743 109.692 30.2423 110.068 30.3623 110.372C30.4823 110.668 30.6623 110.888 30.9023 111.032C31.1503 111.168 31.4623 111.236 31.8383 111.236C32.0703 111.236 32.2783 111.208 32.4623 111.152C32.6463 111.088 32.8023 111 32.9303 110.888C33.0583 110.768 33.1583 110.628 33.2303 110.468C33.3023 110.3 33.3383 110.112 33.3383 109.904H34.5623C34.5623 110.28 34.4983 110.612 34.3703 110.9C34.2423 111.188 34.0543 111.432 33.8063 111.632C33.5663 111.824 33.2783 111.972 32.9423 112.076C32.6063 112.18 32.2343 112.232 31.8263 112.232ZM30.1823 108.332H33.2783C33.2783 108.02 33.2423 107.76 33.1703 107.552C33.1063 107.336 33.0103 107.16 32.8823 107.024C32.7543 106.888 32.6023 106.792 32.4263 106.736C32.2503 106.672 32.0503 106.64 31.8263 106.64C31.4903 106.64 31.2023 106.7 30.9623 106.82C30.7303 106.94 30.5503 107.128 30.4223 107.384C30.2943 107.632 30.2143 107.948 30.1823 108.332ZM35.8548 112.088V105.776H36.8868L36.9948 106.676H37.0788C37.2228 106.444 37.3868 106.252 37.5708 106.1C37.7628 105.948 37.9748 105.832 38.2068 105.752C38.4468 105.672 38.7028 105.632 38.9748 105.632C39.3668 105.632 39.7068 105.712 39.9948 105.872C40.2908 106.032 40.5148 106.3 40.6668 106.676H40.7508C40.8948 106.452 41.0628 106.264 41.2548 106.112C41.4468 105.952 41.6628 105.832 41.9028 105.752C42.1508 105.672 42.4148 105.632 42.6948 105.632C43.0708 105.632 43.4028 105.7 43.6908 105.836C43.9788 105.964 44.2068 106.184 44.3748 106.496C44.5428 106.8 44.6268 107.208 44.6268 107.72V112.088H43.3788V107.948C43.3788 107.708 43.3508 107.512 43.2948 107.36C43.2388 107.2 43.1628 107.076 43.0668 106.988C42.9708 106.892 42.8548 106.824 42.7188 106.784C42.5828 106.744 42.4348 106.724 42.2748 106.724C42.0108 106.724 41.7748 106.796 41.5668 106.94C41.3588 107.076 41.1908 107.268 41.0628 107.516C40.9348 107.764 40.8708 108.056 40.8708 108.392V112.088H39.6228V107.948C39.6228 107.708 39.5948 107.512 39.5388 107.36C39.4828 107.2 39.4068 107.076 39.3108 106.988C39.2148 106.892 39.0988 106.824 38.9628 106.784C38.8268 106.744 38.6828 106.724 38.5308 106.724C38.2668 106.724 38.0268 106.796 37.8108 106.94C37.5948 107.076 37.4228 107.268 37.2948 107.516C37.1668 107.764 37.1028 108.056 37.1028 108.392V112.088H35.8548ZM47.775 112.232C47.575 112.232 47.359 112.208 47.127 112.16C46.895 112.112 46.675 112.024 46.467 111.896C46.267 111.768 46.103 111.592 45.975 111.368C45.847 111.136 45.783 110.836 45.783 110.468C45.783 110.036 45.883 109.68 46.083 109.4C46.283 109.12 46.563 108.9 46.923 108.74C47.283 108.58 47.711 108.468 48.207 108.404C48.711 108.34 49.259 108.308 49.851 108.308V107.684C49.851 107.476 49.815 107.292 49.743 107.132C49.679 106.972 49.555 106.848 49.371 106.76C49.195 106.672 48.939 106.628 48.603 106.628C48.267 106.628 48.003 106.672 47.811 106.76C47.627 106.84 47.495 106.944 47.415 107.072C47.343 107.192 47.307 107.324 47.307 107.468V107.648H46.107C46.099 107.608 46.095 107.568 46.095 107.528C46.095 107.488 46.095 107.44 46.095 107.384C46.095 107.008 46.199 106.692 46.407 106.436C46.623 106.172 46.923 105.972 47.307 105.836C47.691 105.7 48.135 105.632 48.639 105.632C49.183 105.632 49.635 105.712 49.995 105.872C50.363 106.024 50.639 106.244 50.823 106.532C51.007 106.82 51.099 107.168 51.099 107.576V110.78C51.099 110.932 51.135 111.04 51.207 111.104C51.287 111.168 51.379 111.2 51.483 111.2H51.915V112.04C51.819 112.08 51.699 112.12 51.555 112.16C51.411 112.2 51.243 112.22 51.051 112.22C50.835 112.22 50.651 112.18 50.499 112.1C50.355 112.028 50.235 111.924 50.139 111.788C50.051 111.644 49.991 111.484 49.959 111.308H49.887C49.743 111.492 49.567 111.656 49.359 111.8C49.159 111.936 48.927 112.04 48.663 112.112C48.399 112.192 48.103 112.232 47.775 112.232ZM48.123 111.2C48.371 111.2 48.599 111.164 48.807 111.092C49.023 111.012 49.207 110.904 49.359 110.768C49.511 110.624 49.631 110.456 49.719 110.264C49.807 110.064 49.851 109.848 49.851 109.616V109.196C49.299 109.196 48.815 109.228 48.399 109.292C47.983 109.356 47.659 109.476 47.427 109.652C47.195 109.82 47.079 110.056 47.079 110.36C47.079 110.544 47.119 110.7 47.199 110.828C47.279 110.948 47.399 111.04 47.559 111.104C47.719 111.168 47.907 111.2 48.123 111.2ZM52.7767 104.684V103.412H54.0247V104.684H52.7767ZM52.7767 112.088V105.776H54.0247V112.088H52.7767ZM55.636 112.088V105.776H56.668L56.776 106.676H56.86C57.012 106.444 57.192 106.252 57.4 106.1C57.608 105.948 57.836 105.832 58.084 105.752C58.34 105.672 58.62 105.632 58.924 105.632C59.324 105.632 59.676 105.704 59.98 105.848C60.284 105.984 60.52 106.208 60.688 106.52C60.864 106.832 60.952 107.252 60.952 107.78V112.088H59.704V107.972C59.704 107.732 59.672 107.532 59.608 107.372C59.552 107.212 59.468 107.084 59.356 106.988C59.244 106.892 59.112 106.824 58.96 106.784C58.808 106.744 58.64 106.724 58.456 106.724C58.168 106.724 57.904 106.796 57.664 106.94C57.432 107.076 57.244 107.268 57.1 107.516C56.956 107.764 56.884 108.056 56.884 108.392V112.088H55.636ZM62.5149 104.684V103.412H63.7629V104.684H62.5149ZM62.5149 112.088V105.776H63.7629V112.088H62.5149ZM65.3743 112.088V105.776H66.4063L66.5143 106.676H66.5983C66.7503 106.444 66.9303 106.252 67.1383 106.1C67.3463 105.948 67.5743 105.832 67.8223 105.752C68.0783 105.672 68.3583 105.632 68.6623 105.632C69.0623 105.632 69.4143 105.704 69.7183 105.848C70.0223 105.984 70.2583 106.208 70.4263 106.52C70.6023 106.832 70.6903 107.252 70.6903 107.78V112.088H69.4423V107.972C69.4423 107.732 69.4103 107.532 69.3463 107.372C69.2903 107.212 69.2063 107.084 69.0943 106.988C68.9823 106.892 68.8503 106.824 68.6983 106.784C68.5463 106.744 68.3783 106.724 68.1943 106.724C67.9063 106.724 67.6423 106.796 67.4023 106.94C67.1703 107.076 66.9823 107.268 66.8383 107.516C66.6943 107.764 66.6223 108.056 66.6223 108.392V112.088H65.3743ZM73.3092 114.272C73.0212 114.272 72.7492 114.212 72.4932 114.092C72.2452 113.972 72.0452 113.8 71.8932 113.576C71.7412 113.352 71.6652 113.08 71.6652 112.76C71.6652 112.408 71.7612 112.124 71.9532 111.908C72.1532 111.684 72.3852 111.516 72.6492 111.404C72.4572 111.316 72.3012 111.188 72.1812 111.02C72.0692 110.852 72.0132 110.66 72.0132 110.444C72.0132 110.148 72.1212 109.908 72.3372 109.724C72.5532 109.54 72.8052 109.42 73.0932 109.364C72.8132 109.18 72.5932 108.948 72.4332 108.668C72.2812 108.388 72.2052 108.072 72.2052 107.72C72.2052 107.296 72.3052 106.932 72.5052 106.628C72.7052 106.316 73.0012 106.072 73.3932 105.896C73.7932 105.72 74.2772 105.632 74.8452 105.632C75.0932 105.632 75.3252 105.652 75.5412 105.692C75.7652 105.724 75.9652 105.772 76.1412 105.836C76.4212 105.692 76.6212 105.52 76.7412 105.32C76.8612 105.112 76.9332 104.92 76.9572 104.744H78.1812C78.1812 105.008 78.1252 105.248 78.0132 105.464C77.9092 105.672 77.7612 105.848 77.5692 105.992C77.3852 106.128 77.1612 106.224 76.8972 106.28C77.0972 106.464 77.2452 106.68 77.3412 106.928C77.4452 107.168 77.4972 107.432 77.4972 107.72C77.4972 108.136 77.4012 108.5 77.2092 108.812C77.0172 109.124 76.7252 109.368 76.3332 109.544C75.9492 109.72 75.4732 109.808 74.9052 109.808H73.9212C73.7292 109.808 73.5732 109.848 73.4532 109.928C73.3412 110.008 73.2852 110.128 73.2852 110.288C73.2852 110.424 73.3412 110.536 73.4532 110.624C73.5652 110.712 73.7132 110.756 73.8972 110.756H76.5612C77.0252 110.756 77.4092 110.912 77.7132 111.224C78.0172 111.528 78.1692 111.92 78.1692 112.4C78.1692 112.752 78.0772 113.068 77.8932 113.348C77.7172 113.636 77.4652 113.86 77.1372 114.02C76.8172 114.188 76.4452 114.272 76.0212 114.272H73.3092ZM73.7172 113.348H76.0092C76.1772 113.348 76.3292 113.316 76.4652 113.252C76.6012 113.188 76.7092 113.096 76.7892 112.976C76.8692 112.864 76.9092 112.736 76.9092 112.592C76.9092 112.352 76.8332 112.164 76.6812 112.028C76.5372 111.892 76.3572 111.824 76.1412 111.824H73.7172C73.4932 111.824 73.3052 111.9 73.1532 112.052C73.0012 112.196 72.9252 112.376 72.9252 112.592C72.9252 112.816 72.9972 112.996 73.1412 113.132C73.2932 113.276 73.4852 113.348 73.7172 113.348ZM74.8572 108.908C75.3292 108.908 75.6812 108.804 75.9132 108.596C76.1452 108.38 76.2612 108.088 76.2612 107.72C76.2612 107.344 76.1452 107.056 75.9132 106.856C75.6812 106.648 75.3292 106.544 74.8572 106.544C74.3852 106.544 74.0332 106.648 73.8012 106.856C73.5692 107.056 73.4532 107.344 73.4532 107.72C73.4532 107.96 73.5012 108.172 73.5972 108.356C73.7012 108.532 73.8572 108.668 74.0652 108.764C74.2812 108.86 74.5452 108.908 74.8572 108.908Z" fill="#B8CED9"/>
<path d="M21.6403 72.8926V72.003C21.6403 71.1942 21.784 70.4574 22.0716 69.7924C22.3592 69.1274 22.7456 68.5253 23.2308 67.9862C23.716 67.429 24.2552 66.9079 24.8483 66.4226C25.4593 65.9194 26.0704 65.4431 26.6814 64.9938C27.4363 64.4367 28.1462 63.8796 28.8111 63.3224C29.4761 62.7473 30.0153 62.1363 30.4286 61.4893C30.842 60.8243 31.0487 60.0874 31.0487 59.2787C31.0487 58.9013 30.9588 58.5239 30.7791 58.1464C30.5994 57.769 30.3028 57.4545 29.8895 57.2029C29.4941 56.9513 28.9549 56.8255 28.272 56.8255C27.589 56.8255 27.0229 56.9423 26.5736 57.1759C26.1243 57.3916 25.7828 57.7061 25.5492 58.1195C25.3335 58.5328 25.2257 59.045 25.2257 59.6561V60.7614H21.9368C21.9188 60.6715 21.9009 60.5367 21.8829 60.357C21.8649 60.1773 21.8559 59.9526 21.8559 59.6831C21.8559 58.3531 22.1525 57.2838 22.7456 56.475C23.3566 55.6483 24.1564 55.0462 25.1448 54.6688C26.1513 54.2734 27.2386 54.0757 28.4068 54.0757C29.6289 54.0757 30.6263 54.2555 31.3991 54.6149C32.1899 54.9744 32.801 55.4326 33.2323 55.9898C33.6816 56.5469 33.9871 57.14 34.1489 57.769C34.3286 58.398 34.4185 58.9732 34.4185 59.4943C34.4185 60.357 34.2657 61.1478 33.9602 61.8667C33.6726 62.5676 33.2682 63.2326 32.747 63.8616C32.2259 64.4726 31.6058 65.0657 30.8869 65.6408C30.186 66.198 29.4312 66.7641 28.6224 67.3392C28.2091 67.6267 27.8047 67.9143 27.4093 68.2018C27.0139 68.4894 26.6635 68.777 26.358 69.0645C26.0704 69.3521 25.8457 69.6396 25.684 69.9272H34.5263V72.8926H21.6403ZM44.775 72.8926V68.768H36.6337V66.0722C37.3525 64.886 38.0175 63.6639 38.6286 62.4058C39.2396 61.1478 39.7968 59.8268 40.3 58.443C40.8032 57.0591 41.2345 55.6034 41.594 54.0757H45.0446C44.811 55.0283 44.5144 56.0078 44.155 57.0142C43.7956 58.0206 43.4002 59.0001 42.9688 59.9526C42.5375 60.9052 42.1062 61.7948 41.6748 62.6215C41.2435 63.4302 40.8391 64.1401 40.4617 64.7512C40.1023 65.3443 39.8147 65.7846 39.5991 66.0722H44.775V61.4084C44.9368 61.0669 45.0985 60.7075 45.2603 60.3301C45.422 59.9347 45.5748 59.5393 45.7186 59.1439C45.8803 58.7305 46.0241 58.3351 46.1499 57.9577C46.2757 57.5623 46.3925 57.1849 46.5004 56.8255H48.0639V66.0722H50.3554V68.768H48.0639V72.8926H44.775ZM59.1208 73.2161C58.1144 73.2161 57.2158 73.0723 56.425 72.7847C55.6342 72.4792 54.9603 71.967 54.4031 71.2481C53.846 70.5292 53.4236 69.5587 53.1361 68.3366C52.8485 67.0966 52.7048 65.533 52.7048 63.6459C52.7048 61.7588 52.8485 60.2042 53.1361 58.9821C53.4236 57.7421 53.846 56.7626 54.4031 56.0437C54.9603 55.3248 55.6342 54.8216 56.425 54.534C57.2158 54.2285 58.1144 54.0757 59.1208 54.0757C60.1272 54.0757 61.0169 54.2285 61.7897 54.534C62.5804 54.8216 63.2544 55.3248 63.8115 56.0437C64.3687 56.7626 64.791 57.7421 65.0786 58.9821C65.3661 60.2042 65.5099 61.7588 65.5099 63.6459C65.5099 65.533 65.3661 67.0966 65.0786 68.3366C64.791 69.5587 64.3687 70.5292 63.8115 71.2481C63.2544 71.967 62.5804 72.4792 61.7897 72.7847C61.0169 73.0723 60.1272 73.2161 59.1208 73.2161ZM59.1208 70.5203C59.9655 70.5203 60.5945 70.2956 61.0079 69.8463C61.4392 69.379 61.7268 68.6961 61.8705 67.7975C62.0323 66.8809 62.1132 65.7487 62.1132 64.4007V62.9989C62.1132 61.6151 62.0323 60.4648 61.8705 59.5483C61.7268 58.6137 61.4392 57.9218 61.0079 57.4725C60.5945 57.0052 59.9655 56.7716 59.1208 56.7716C58.2941 56.7716 57.6561 57.0052 57.2068 57.4725C56.7754 57.9218 56.4789 58.6047 56.3172 59.5213C56.1734 60.4199 56.1015 61.5522 56.1015 62.918V64.3199C56.1015 65.6858 56.1734 66.836 56.3172 67.7705C56.4789 68.6871 56.7754 69.379 57.2068 69.8463C57.6561 70.2956 58.2941 70.5203 59.1208 70.5203ZM74.627 73.2161C73.6206 73.2161 72.722 73.0723 71.9312 72.7847C71.1404 72.4792 70.4665 71.967 69.9094 71.2481C69.3522 70.5292 68.9299 69.5587 68.6423 68.3366C68.3548 67.0966 68.211 65.533 68.211 63.6459C68.211 61.7588 68.3548 60.2042 68.6423 58.9821C68.9299 57.7421 69.3522 56.7626 69.9094 56.0437C70.4665 55.3248 71.1404 54.8216 71.9312 54.534C72.722 54.2285 73.6206 54.0757 74.627 54.0757C75.6335 54.0757 76.5231 54.2285 77.2959 54.534C78.0867 54.8216 78.7606 55.3248 79.3178 56.0437C79.8749 56.7626 80.2972 57.7421 80.5848 58.9821C80.8724 60.2042 81.0161 61.7588 81.0161 63.6459C81.0161 65.533 80.8724 67.0966 80.5848 68.3366C80.2972 69.5587 79.8749 70.5292 79.3178 71.2481C78.7606 71.967 78.0867 72.4792 77.2959 72.7847C76.5231 73.0723 75.6335 73.2161 74.627 73.2161ZM74.627 70.5203C75.4717 70.5203 76.1008 70.2956 76.5141 69.8463C76.9454 69.379 77.233 68.6961 77.3768 67.7975C77.5385 66.8809 77.6194 65.7487 77.6194 64.4007V62.9989C77.6194 61.6151 77.5385 60.4648 77.3768 59.5483C77.233 58.6137 76.9454 57.9218 76.5141 57.4725C76.1008 57.0052 75.4717 56.7716 74.627 56.7716C73.8003 56.7716 73.1623 57.0052 72.713 57.4725C72.2817 57.9218 71.9851 58.6047 71.8234 59.5213C71.6796 60.4199 71.6077 61.5522 71.6077 62.918V64.3199C71.6077 65.6858 71.6796 66.836 71.8234 67.7705C71.9851 68.6871 72.2817 69.379 72.713 69.8463C73.1623 70.2956 73.8003 70.5203 74.627 70.5203ZM93.3466 73.1352C92.2817 73.1352 91.3921 72.9398 90.6777 72.5489C89.9633 72.1445 89.4242 71.5312 89.0602 70.709C88.7098 69.8867 88.5345 68.8421 88.5345 67.5751C88.5345 66.308 88.7165 65.2701 89.0804 64.4614C89.4444 63.6392 89.9835 63.0259 90.6979 62.6215C91.4258 62.2171 92.3154 62.0149 93.3668 62.0149C94.0947 62.0149 94.7282 62.1093 95.2673 62.298C95.8065 62.4732 96.2648 62.7428 96.6422 63.1067C97.0196 63.4572 97.2959 63.8953 97.4712 64.421C97.6599 64.9466 97.7542 65.5465 97.7542 66.2204H95.6313C95.6313 65.6543 95.5504 65.1893 95.3887 64.8253C95.2269 64.4614 94.9775 64.1918 94.6406 64.0166C94.3036 63.8279 93.8655 63.7335 93.3264 63.7335C92.7602 63.7335 92.2817 63.8683 91.8908 64.1379C91.4999 64.394 91.2034 64.7916 91.0012 65.3308C90.799 65.8565 90.6979 66.5507 90.6979 67.4133V67.757C90.6979 68.5793 90.7923 69.2667 90.981 69.8193C91.1832 70.3585 91.4797 70.7629 91.8706 71.0325C92.275 71.2886 92.7872 71.4166 93.4072 71.4166C93.9464 71.4166 94.3777 71.3223 94.7012 71.1336C95.0382 70.9314 95.2876 70.6483 95.4493 70.2844C95.6245 69.907 95.7122 69.4554 95.7122 68.9297H97.7542C97.7542 69.5632 97.6599 70.1361 97.4712 70.6483C97.2959 71.1605 97.0196 71.6053 96.6422 71.9827C96.2783 72.3467 95.82 72.6297 95.2673 72.8319C94.7147 73.0341 94.0744 73.1352 93.3466 73.1352ZM102.571 73.1352C102.234 73.1352 101.87 73.0948 101.479 73.0139C101.088 72.933 100.717 72.7847 100.367 72.5691C100.03 72.3534 99.7537 72.0569 99.5381 71.6795C99.3224 71.2886 99.2146 70.7831 99.2146 70.1631C99.2146 69.4352 99.383 68.8354 99.72 68.3636C100.057 67.8918 100.529 67.5212 101.135 67.2516C101.742 66.982 102.463 66.7933 103.299 66.6854C104.148 66.5776 105.071 66.5237 106.069 66.5237V65.4723C106.069 65.1219 106.008 64.8119 105.887 64.5423C105.779 64.2727 105.57 64.0638 105.26 63.9155C104.963 63.7672 104.532 63.6931 103.966 63.6931C103.4 63.6931 102.955 63.7672 102.632 63.9155C102.321 64.0503 102.099 64.2255 101.964 64.4412C101.843 64.6434 101.782 64.8658 101.782 65.1084V65.4117H99.7605C99.747 65.3443 99.7402 65.2769 99.7402 65.2095C99.7402 65.1421 99.7402 65.0612 99.7402 64.9669C99.7402 64.3333 99.9155 63.8009 100.266 63.3696C100.63 62.9248 101.135 62.5878 101.782 62.3587C102.429 62.1295 103.177 62.0149 104.027 62.0149C104.943 62.0149 105.705 62.1497 106.311 62.4193C106.931 62.6754 107.396 63.0461 107.706 63.5313C108.016 64.0166 108.171 64.6029 108.171 65.2904V70.6887C108.171 70.9448 108.232 71.1268 108.353 71.2346C108.488 71.3425 108.643 71.3964 108.818 71.3964H109.546V72.8117C109.385 72.8791 109.182 72.9465 108.94 73.0139C108.697 73.0813 108.414 73.115 108.091 73.115C107.727 73.115 107.417 73.0476 107.16 72.9128C106.918 72.7915 106.716 72.6163 106.554 72.3871C106.406 72.1445 106.305 71.8749 106.251 71.5784H106.129C105.887 71.8884 105.59 72.1647 105.24 72.4073C104.903 72.6365 104.512 72.8117 104.067 72.933C103.622 73.0678 103.123 73.1352 102.571 73.1352ZM103.157 71.3964C103.575 71.3964 103.959 71.3357 104.31 71.2144C104.674 71.0796 104.984 70.8977 105.24 70.6685C105.496 70.4259 105.698 70.1428 105.846 69.8193C105.995 69.4824 106.069 69.1184 106.069 68.7275V68.0199C105.139 68.0199 104.323 68.0738 103.622 68.1816C102.921 68.2895 102.375 68.4916 101.985 68.7882C101.594 69.0713 101.398 69.4689 101.398 69.9811C101.398 70.2911 101.466 70.554 101.6 70.7696C101.735 70.9718 101.937 71.1268 102.207 71.2346C102.477 71.3425 102.793 71.3964 103.157 71.3964ZM110.998 72.8926V58.2745H113.101V72.8926H110.998Z" fill="white"/>
<path d="M22.9073 141.088V138.392H27.3554V126.746H22.8803V124.724C23.4195 124.67 24.0485 124.545 24.7674 124.347C25.5043 124.131 26.2501 123.871 27.0049 123.565C27.7598 123.26 28.4427 122.936 29.0538 122.595H30.6713V138.392H34.7689V141.088H22.9073ZM44.775 141.088V136.963H36.6337V134.267C37.3525 133.081 38.0175 131.859 38.6286 130.601C39.2396 129.343 39.7968 128.022 40.3 126.638C40.8032 125.254 41.2345 123.799 41.594 122.271H45.0446C44.811 123.224 44.5144 124.203 44.155 125.21C43.7956 126.216 43.4002 127.195 42.9688 128.148C42.5375 129.1 42.1062 129.99 41.6748 130.817C41.2435 131.626 40.8391 132.335 40.4617 132.947C40.1023 133.54 39.8147 133.98 39.5991 134.267H44.775V129.604C44.9368 129.262 45.0985 128.903 45.2603 128.525C45.422 128.13 45.5748 127.735 45.7186 127.339C45.8803 126.926 46.0241 126.53 46.1499 126.153C46.2757 125.758 46.3925 125.38 46.5004 125.021H48.0639V134.267H50.3554V136.963H48.0639V141.088H44.775ZM59.0938 141.411C57.7999 141.411 56.6586 141.169 55.6702 140.684C54.6997 140.198 53.9448 139.506 53.4057 138.608C52.8665 137.691 52.5969 136.604 52.5969 135.346H55.9937C55.9937 136.029 56.1195 136.631 56.3711 137.152C56.6227 137.655 56.9821 138.042 57.4494 138.311C57.9167 138.581 58.4648 138.716 59.0938 138.716C59.7049 138.716 60.2351 138.581 60.6844 138.311C61.1337 138.042 61.4841 137.637 61.7358 137.098C62.0053 136.541 62.1401 135.858 62.1401 135.049C62.1401 134.294 62.0143 133.674 61.7627 133.189C61.5111 132.686 61.1606 132.317 60.7113 132.084C60.262 131.832 59.7498 131.706 59.1747 131.706C58.7434 131.706 58.348 131.778 57.9886 131.922C57.6291 132.066 57.3146 132.255 57.045 132.488C56.7754 132.704 56.5418 132.955 56.3441 133.243L53.217 132.839L53.9718 122.595H64.5933V125.587H56.8294L56.5328 130.143C56.7844 129.963 57.072 129.792 57.3955 129.631C57.719 129.469 58.0964 129.334 58.5277 129.226C58.977 129.118 59.4892 129.065 60.0643 129.065C61.0888 129.065 62.0143 129.28 62.841 129.712C63.6678 130.143 64.3237 130.799 64.809 131.679C65.2942 132.56 65.5369 133.683 65.5369 135.049C65.5369 136.397 65.2763 137.547 64.7551 138.5C64.2339 139.452 63.488 140.18 62.5175 140.684C61.565 141.169 60.4238 141.411 59.0938 141.411ZM74.627 141.411C73.6206 141.411 72.722 141.268 71.9312 140.98C71.1404 140.675 70.4665 140.162 69.9094 139.443C69.3522 138.725 68.9299 137.754 68.6423 136.532C68.3548 135.292 68.211 133.728 68.211 131.841C68.211 129.954 68.3548 128.4 68.6423 127.177C68.9299 125.937 69.3522 124.958 69.9094 124.239C70.4665 123.52 71.1404 123.017 71.9312 122.729C72.722 122.424 73.6206 122.271 74.627 122.271C75.6335 122.271 76.5231 122.424 77.2959 122.729C78.0867 123.017 78.7606 123.52 79.3178 124.239C79.8749 124.958 80.2972 125.937 80.5848 127.177C80.8724 128.4 81.0161 129.954 81.0161 131.841C81.0161 133.728 80.8724 135.292 80.5848 136.532C80.2972 137.754 79.8749 138.725 79.3178 139.443C78.7606 140.162 78.0867 140.675 77.2959 140.98C76.5231 141.268 75.6335 141.411 74.627 141.411ZM74.627 138.716C75.4717 138.716 76.1008 138.491 76.5141 138.042C76.9454 137.574 77.233 136.891 77.3768 135.993C77.5385 135.076 77.6194 133.944 77.6194 132.596V131.194C77.6194 129.81 77.5385 128.66 77.3768 127.744C77.233 126.809 76.9454 126.117 76.5141 125.668C76.1008 125.201 75.4717 124.967 74.627 124.967C73.8003 124.967 73.1623 125.201 72.713 125.668C72.2817 126.117 71.9851 126.8 71.8234 127.717C71.6796 128.615 71.6077 129.747 71.6077 131.113V132.515C71.6077 133.881 71.6796 135.031 71.8234 135.966C71.9851 136.882 72.2817 137.574 72.713 138.042C73.1623 138.491 73.8003 138.716 74.627 138.716ZM93.3466 141.331C92.2817 141.331 91.3921 141.135 90.6777 140.744C89.9633 140.34 89.4242 139.727 89.0602 138.904C88.7098 138.082 88.5345 137.037 88.5345 135.77C88.5345 134.503 88.7165 133.465 89.0804 132.657C89.4444 131.834 89.9835 131.221 90.6979 130.817C91.4258 130.412 92.3154 130.21 93.3668 130.21C94.0947 130.21 94.7282 130.305 95.2673 130.493C95.8065 130.669 96.2648 130.938 96.6422 131.302C97.0196 131.653 97.2959 132.091 97.4712 132.616C97.6599 133.142 97.7542 133.742 97.7542 134.416H95.6313C95.6313 133.85 95.5504 133.385 95.3887 133.021C95.2269 132.657 94.9775 132.387 94.6406 132.212C94.3036 132.023 93.8655 131.929 93.3264 131.929C92.7602 131.929 92.2817 132.064 91.8908 132.333C91.4999 132.589 91.2034 132.987 91.0012 133.526C90.799 134.052 90.6979 134.746 90.6979 135.609V135.952C90.6979 136.775 90.7923 137.462 90.981 138.015C91.1832 138.554 91.4797 138.958 91.8706 139.228C92.275 139.484 92.7872 139.612 93.4072 139.612C93.9464 139.612 94.3777 139.518 94.7012 139.329C95.0382 139.127 95.2876 138.844 95.4493 138.48C95.6245 138.102 95.7122 137.651 95.7122 137.125H97.7542C97.7542 137.759 97.6599 138.331 97.4712 138.844C97.2959 139.356 97.0196 139.801 96.6422 140.178C96.2783 140.542 95.82 140.825 95.2673 141.027C94.7147 141.229 94.0744 141.331 93.3466 141.331ZM102.571 141.331C102.234 141.331 101.87 141.29 101.479 141.209C101.088 141.128 100.717 140.98 100.367 140.764C100.03 140.549 99.7537 140.252 99.5381 139.875C99.3224 139.484 99.2146 138.978 99.2146 138.358C99.2146 137.63 99.383 137.031 99.72 136.559C100.057 136.087 100.529 135.716 101.135 135.447C101.742 135.177 102.463 134.989 103.299 134.881C104.148 134.773 105.071 134.719 106.069 134.719V133.668C106.069 133.317 106.008 133.007 105.887 132.738C105.779 132.468 105.57 132.259 105.26 132.111C104.963 131.963 104.532 131.888 103.966 131.888C103.4 131.888 102.955 131.963 102.632 132.111C102.321 132.246 102.099 132.421 101.964 132.636C101.843 132.839 101.782 133.061 101.782 133.304V133.607H99.7605C99.747 133.54 99.7402 133.472 99.7402 133.405C99.7402 133.337 99.7402 133.257 99.7402 133.162C99.7402 132.529 99.9155 131.996 100.266 131.565C100.63 131.12 101.135 130.783 101.782 130.554C102.429 130.325 103.177 130.21 104.027 130.21C104.943 130.21 105.705 130.345 106.311 130.615C106.931 130.871 107.396 131.241 107.706 131.727C108.016 132.212 108.171 132.798 108.171 133.486V138.884C108.171 139.14 108.232 139.322 108.353 139.43C108.488 139.538 108.643 139.592 108.818 139.592H109.546V141.007C109.385 141.074 109.182 141.142 108.94 141.209C108.697 141.277 108.414 141.31 108.091 141.31C107.727 141.31 107.417 141.243 107.16 141.108C106.918 140.987 106.716 140.812 106.554 140.582C106.406 140.34 106.305 140.07 106.251 139.774H106.129C105.887 140.084 105.59 140.36 105.24 140.603C104.903 140.832 104.512 141.007 104.067 141.128C103.622 141.263 103.123 141.331 102.571 141.331ZM103.157 139.592C103.575 139.592 103.959 139.531 104.31 139.41C104.674 139.275 104.984 139.093 105.24 138.864C105.496 138.621 105.698 138.338 105.846 138.015C105.995 137.678 106.069 137.314 106.069 136.923V136.215C105.139 136.215 104.323 136.269 103.622 136.377C102.921 136.485 102.375 136.687 101.985 136.984C101.594 137.267 101.398 137.664 101.398 138.176C101.398 138.486 101.466 138.749 101.6 138.965C101.735 139.167 101.937 139.322 102.207 139.43C102.477 139.538 102.793 139.592 103.157 139.592ZM110.998 141.088V126.47H113.101V141.088H110.998Z" fill="white"/>
<g clip-path="url(#clip1_24_26)">
<g opacity="0.45" filter="url(#filter0_b_24_26)">
<path fill-rule="evenodd" clip-rule="evenodd" d="M344.993 167.478C382.465 167.478 412.836 137.102 412.836 99.6393C412.836 62.1769 382.465 31.8007 344.993 31.8007C307.521 31.8007 277.15 62.1769 277.15 99.6393C277.15 137.102 307.521 167.478 344.993 167.478ZM344.993 168.757C383.166 168.757 414.111 137.812 414.111 99.6393C414.111 61.4666 383.166 30.5215 344.993 30.5215C306.82 30.5215 275.875 61.4666 275.875 99.6393C275.875 137.812 306.82 168.757 344.993 168.757Z" fill="#384B54"/>
</g>
<g opacity="0.2" filter="url(#filter1_b_24_26)">
<path fill-rule="evenodd" clip-rule="evenodd" d="M344.941 187.429C393.459 187.429 432.784 148.099 432.784 99.5905C432.784 51.0824 393.459 11.7519 344.941 11.7519C296.423 11.7519 257.098 51.0824 257.098 99.5905C257.098 148.099 296.423 187.429 344.941 187.429ZM344.941 188.708C394.16 188.708 434.059 148.809 434.059 99.5905C434.059 50.3721 394.16 10.4727 344.941 10.4727C295.723 10.4727 255.823 50.3721 255.823 99.5905C255.823 148.809 295.723 188.708 344.941 188.708Z" fill="#52656E"/>
</g>
<circle cx="344.846" cy="99.9264" r="43.3088" stroke="#0A1B22" stroke-width="9.11409"/>
<g filter="url(#filter2_d_24_26)">
<path d="M344.549 142.656C368.45 142.656 387.826 123.28 387.826 99.3788C387.826 75.4774 368.45 56.1016 344.549 56.1016" stroke="#4CC273" stroke-width="9.11409" stroke-linecap="round"/>
</g>
<path d="M357.597 95.4898C357.461 95.2199 357.253 94.993 356.996 94.8341C356.739 94.6753 356.443 94.5907 356.141 94.5898H347.958V84.7711C347.976 84.4122 347.875 84.0575 347.671 83.7618C347.467 83.466 347.171 83.2457 346.829 83.1347C346.501 83.0266 346.146 83.0254 345.817 83.1312C345.488 83.2371 345.201 83.4445 344.996 83.7238L331.905 101.725C331.741 101.962 331.642 102.238 331.619 102.525C331.596 102.813 331.65 103.101 331.774 103.361C331.888 103.659 332.087 103.916 332.346 104.102C332.605 104.288 332.912 104.395 333.23 104.408H341.413V114.227C341.413 114.572 341.522 114.908 341.725 115.188C341.928 115.467 342.214 115.675 342.542 115.782C342.706 115.833 342.877 115.86 343.049 115.863C343.307 115.864 343.562 115.804 343.792 115.687C344.023 115.57 344.222 115.401 344.375 115.193L357.466 97.1917C357.642 96.9476 357.748 96.6595 357.771 96.3592C357.794 96.0589 357.734 95.7581 357.597 95.4898V95.4898ZM344.686 109.187V102.772C344.686 102.338 344.513 101.922 344.206 101.615C343.899 101.308 343.483 101.136 343.049 101.136H336.503L344.686 89.8114V96.2262C344.686 96.6602 344.858 97.0765 345.165 97.3834C345.472 97.6902 345.888 97.8627 346.322 97.8627H352.868L344.686 109.187Z" fill="#4CC273"/>
</g>
</g>
<defs>
<filter id="filter0_b_24_26" x="46.3054" y="-199.048" width="597.375" height="597.375" filterUnits="userSpaceOnUse" color-interpolation-filters="sRGB">
<feFlood flood-opacity="0" result="BackgroundImageFix"/>
<feGaussianBlur in="BackgroundImageFix" stdDeviation="114.785"/>
<feComposite in2="SourceAlpha" operator="in" result="effect1_backgroundBlur_24_26"/>
<feBlend mode="normal" in="SourceGraphic" in2="effect1_backgroundBlur_24_26" result="shape"/>
</filter>
<filter id="filter1_b_24_26" x="26.2536" y="-219.097" width="637.375" height="637.375" filterUnits="userSpaceOnUse" color-interpolation-filters="sRGB">
<feFlood flood-opacity="0" result="BackgroundImageFix"/>
<feGaussianBlur in="BackgroundImageFix" stdDeviation="114.785"/>
<feComposite in2="SourceAlpha" operator="in" result="effect1_backgroundBlur_24_26"/>
<feBlend mode="normal" in="SourceGraphic" in2="effect1_backgroundBlur_24_26" result="shape"/>
</filter>
<filter id="filter2_d_24_26" x="320.156" y="31.7091" width="92.0622" height="135.339" filterUnits="userSpaceOnUse" color-interpolation-filters="sRGB">
<feFlood flood-opacity="0" result="BackgroundImageFix"/>
<feColorMatrix in="SourceAlpha" type="matrix" values="0 0 0 0 0 0 0 0 0 0 0 0 0 0 0 0 0 0 127 0" result="hardAlpha"/>
<feOffset/>
<feGaussianBlur stdDeviation="9.91771"/>
<feColorMatrix type="matrix" values="0 0 0 0 0.191667 0 0 0 0 1 0 0 0 0 0.462957 0 0 0 0.41 0"/>
<feBlend mode="normal" in2="BackgroundImageFix" result="effect1_dropShadow_24_26"/>
<feBlend mode="normal" in="SourceGraphic" in2="effect1_dropShadow_24_26" result="shape"/>
</filter>
<clipPath id="clip0_24_26">
<rect width="413" height="165" rx="13.4008" fill="white"/>
</clipPath>
<clipPath id="clip1_24_26">
<rect width="158.585" height="158.585" fill="white" transform="translate(254 6.81836)"/>
</clipPath>
</defs>
</svg>
