<svg width="194" height="88" viewBox="0 0 194 88" fill="none" xmlns="http://www.w3.org/2000/svg">
<rect width="194" height="88" rx="13.4008" fill="#162A32"/>
<path d="M19.7016 31.144C19.2536 31.144 18.8216 31.096 18.4056 31C17.9896 30.912 17.6216 30.768 17.3016 30.568C16.9816 30.36 16.7296 30.1 16.5456 29.788C16.3616 29.468 16.2696 29.088 16.2696 28.648C16.2696 28.6 16.2696 28.556 16.2696 28.516C16.2776 28.468 16.2816 28.428 16.2816 28.396H17.6256C17.6256 28.42 17.6216 28.456 17.6136 28.504C17.6136 28.552 17.6136 28.592 17.6136 28.624C17.6136 28.92 17.7016 29.172 17.8776 29.38C18.0536 29.588 18.2976 29.744 18.6096 29.848C18.9296 29.952 19.2936 30.004 19.7016 30.004C19.9256 30.004 20.1416 29.992 20.3496 29.968C20.5576 29.936 20.7456 29.892 20.9136 29.836C21.0896 29.772 21.2416 29.696 21.3696 29.608C21.4976 29.512 21.5976 29.4 21.6696 29.272C21.7416 29.144 21.7776 28.996 21.7776 28.828C21.7776 28.572 21.7016 28.36 21.5496 28.192C21.4056 28.024 21.2056 27.884 20.9496 27.772C20.7016 27.66 20.4176 27.56 20.0976 27.472C19.7856 27.384 19.4616 27.296 19.1256 27.208C18.7896 27.12 18.4616 27.016 18.1416 26.896C17.8296 26.776 17.5456 26.632 17.2896 26.464C17.0416 26.288 16.8416 26.072 16.6896 25.816C16.5456 25.552 16.4736 25.232 16.4736 24.856C16.4736 24.496 16.5496 24.176 16.7016 23.896C16.8536 23.616 17.0736 23.384 17.3616 23.2C17.6496 23.008 17.9936 22.864 18.3936 22.768C18.7936 22.672 19.2456 22.624 19.7496 22.624C20.1816 22.624 20.5896 22.672 20.9736 22.768C21.3576 22.856 21.6936 22.996 21.9816 23.188C22.2696 23.38 22.4936 23.624 22.6536 23.92C22.8216 24.216 22.9056 24.568 22.9056 24.976V25.12H21.5736V24.964C21.5736 24.708 21.4976 24.492 21.3456 24.316C21.1936 24.14 20.9816 24.004 20.7096 23.908C20.4376 23.812 20.1216 23.764 19.7616 23.764C19.3376 23.764 18.9816 23.808 18.6936 23.896C18.4056 23.976 18.1856 24.092 18.0336 24.244C17.8896 24.388 17.8176 24.564 17.8176 24.772C17.8176 25.004 17.8936 25.196 18.0456 25.348C18.1976 25.492 18.3976 25.616 18.6456 25.72C18.9016 25.824 19.1856 25.92 19.4976 26.008C19.8176 26.088 20.1416 26.176 20.4696 26.272C20.8056 26.36 21.1296 26.464 21.4416 26.584C21.7616 26.704 22.0456 26.852 22.2936 27.028C22.5496 27.204 22.7536 27.424 22.9056 27.688C23.0576 27.944 23.1336 28.26 23.1336 28.636C23.1336 29.228 22.9856 29.712 22.6896 30.088C22.3936 30.456 21.9856 30.724 21.4656 30.892C20.9536 31.06 20.3656 31.144 19.7016 31.144ZM24.5247 33.076V24.688H25.5447L25.6527 25.552H25.7367C25.9527 25.216 26.2287 24.964 26.5647 24.796C26.9007 24.628 27.2767 24.544 27.6927 24.544C28.2127 24.544 28.6567 24.66 29.0247 24.892C29.4007 25.124 29.6887 25.484 29.8887 25.972C30.0887 26.46 30.1887 27.092 30.1887 27.868C30.1887 28.62 30.0847 29.24 29.8767 29.728C29.6767 30.208 29.3927 30.564 29.0247 30.796C28.6567 31.028 28.2327 31.144 27.7527 31.144C27.4727 31.144 27.2127 31.112 26.9727 31.048C26.7327 30.984 26.5167 30.884 26.3247 30.748C26.1407 30.612 25.9807 30.44 25.8447 30.232H25.7727V33.076H24.5247ZM27.3207 30.064C27.6967 30.064 28.0007 29.992 28.2327 29.848C28.4647 29.696 28.6327 29.464 28.7367 29.152C28.8487 28.84 28.9047 28.444 28.9047 27.964V27.748C28.9047 27.244 28.8487 26.836 28.7367 26.524C28.6247 26.212 28.4527 25.984 28.2207 25.84C27.9967 25.696 27.7047 25.624 27.3447 25.624C26.9767 25.624 26.6767 25.708 26.4447 25.876C26.2127 26.036 26.0407 26.276 25.9287 26.596C25.8247 26.916 25.7727 27.304 25.7727 27.76V27.928C25.7727 28.304 25.8087 28.628 25.8807 28.9C25.9527 29.172 26.0567 29.396 26.1927 29.572C26.3287 29.74 26.4927 29.864 26.6847 29.944C26.8767 30.024 27.0887 30.064 27.3207 30.064ZM34.0899 31.144C33.4419 31.144 32.8979 31.028 32.4579 30.796C32.0259 30.556 31.6979 30.192 31.4739 29.704C31.2499 29.216 31.1379 28.596 31.1379 27.844C31.1379 27.084 31.2499 26.464 31.4739 25.984C31.6979 25.496 32.0299 25.136 32.4699 24.904C32.9099 24.664 33.4579 24.544 34.1139 24.544C34.7139 24.544 35.2139 24.66 35.6139 24.892C36.0219 25.116 36.3299 25.46 36.5379 25.924C36.7459 26.388 36.8499 26.972 36.8499 27.676V28.156H32.4219C32.4379 28.604 32.5059 28.98 32.6259 29.284C32.7459 29.58 32.9259 29.8 33.1659 29.944C33.4139 30.08 33.7259 30.148 34.1019 30.148C34.3339 30.148 34.5419 30.12 34.7259 30.064C34.9099 30 35.0659 29.912 35.1939 29.8C35.3219 29.68 35.4219 29.54 35.4939 29.38C35.5659 29.212 35.6019 29.024 35.6019 28.816H36.8259C36.8259 29.192 36.7619 29.524 36.6339 29.812C36.5059 30.1 36.3179 30.344 36.0699 30.544C35.8299 30.736 35.5419 30.884 35.2059 30.988C34.8699 31.092 34.4979 31.144 34.0899 31.144ZM32.4459 27.244H35.5419C35.5419 26.932 35.5059 26.672 35.4339 26.464C35.3699 26.248 35.2739 26.072 35.1459 25.936C35.0179 25.8 34.8659 25.704 34.6899 25.648C34.5139 25.584 34.3139 25.552 34.0899 25.552C33.7539 25.552 33.4659 25.612 33.2259 25.732C32.9939 25.852 32.8139 26.04 32.6859 26.296C32.5579 26.544 32.4779 26.86 32.4459 27.244ZM38.1185 31V24.688H39.1505L39.2585 25.588H39.3425C39.4945 25.356 39.6745 25.164 39.8825 25.012C40.0905 24.86 40.3185 24.744 40.5665 24.664C40.8225 24.584 41.1025 24.544 41.4065 24.544C41.8065 24.544 42.1585 24.616 42.4625 24.76C42.7665 24.896 43.0025 25.12 43.1705 25.432C43.3465 25.744 43.4345 26.164 43.4345 26.692V31H42.1865V26.884C42.1865 26.644 42.1545 26.444 42.0905 26.284C42.0345 26.124 41.9505 25.996 41.8385 25.9C41.7265 25.804 41.5945 25.736 41.4425 25.696C41.2905 25.656 41.1225 25.636 40.9385 25.636C40.6505 25.636 40.3865 25.708 40.1465 25.852C39.9145 25.988 39.7265 26.18 39.5825 26.428C39.4385 26.676 39.3665 26.968 39.3665 27.304V31H38.1185ZM46.5694 31.144C46.2094 31.144 45.9254 31.076 45.7174 30.94C45.5174 30.796 45.3734 30.616 45.2854 30.4C45.2054 30.176 45.1654 29.94 45.1654 29.692V25.72H44.3734V24.688H45.1894L45.4174 22.924H46.4134V24.688H47.5534V25.72H46.4134V29.548C46.4134 29.732 46.4534 29.872 46.5334 29.968C46.6134 30.064 46.7454 30.112 46.9294 30.112H47.5534V30.952C47.4734 30.984 47.3734 31.012 47.2534 31.036C47.1414 31.068 47.0254 31.092 46.9054 31.108C46.7854 31.132 46.6734 31.144 46.5694 31.144Z" fill="#B8CED9"/>
<path d="M24.8271 65V60.8754H16.6857V58.1796C17.4046 56.9934 18.0696 55.7713 18.6806 54.5133C19.2917 53.2552 19.8488 51.9343 20.3521 50.5504C20.8553 49.1665 21.2866 47.7108 21.6461 46.1832H25.0967C24.8631 47.1357 24.5665 48.1152 24.2071 49.1216C23.8476 50.1281 23.4523 51.1075 23.0209 52.0601C22.5896 53.0126 22.1583 53.9022 21.7269 54.7289C21.2956 55.5377 20.8912 56.2476 20.5138 56.8586C20.1544 57.4517 19.8668 57.892 19.6511 58.1796H24.8271V53.5158C24.9889 53.1743 25.1506 52.8149 25.3124 52.4375C25.4741 52.0421 25.6269 51.6467 25.7707 51.2513C25.9324 50.838 26.0762 50.4426 26.202 50.0652C26.3278 49.6698 26.4446 49.2924 26.5524 48.9329H28.116V58.1796H30.4075V60.8754H28.116V65H24.8271ZM39.1729 65.3235C38.1664 65.3235 37.2678 65.1797 36.4771 64.8922C35.6863 64.5866 35.0123 64.0744 34.4552 63.3555C33.8981 62.6367 33.4757 61.6662 33.1882 60.4441C32.9006 59.204 32.7568 57.6404 32.7568 55.7533C32.7568 53.8663 32.9006 52.3117 33.1882 51.0896C33.4757 49.8495 33.8981 48.87 34.4552 48.1511C35.0123 47.4322 35.6863 46.929 36.4771 46.6415C37.2678 46.3359 38.1664 46.1832 39.1729 46.1832C40.1793 46.1832 41.0689 46.3359 41.8417 46.6415C42.6325 46.929 43.3065 47.4322 43.8636 48.1511C44.4208 48.87 44.8431 49.8495 45.1307 51.0896C45.4182 52.3117 45.562 53.8663 45.562 55.7533C45.562 57.6404 45.4182 59.204 45.1307 60.4441C44.8431 61.6662 44.4208 62.6367 43.8636 63.3555C43.3065 64.0744 42.6325 64.5866 41.8417 64.8922C41.0689 65.1797 40.1793 65.3235 39.1729 65.3235ZM39.1729 62.6277C40.0176 62.6277 40.6466 62.403 41.06 61.9537C41.4913 61.4864 41.7788 60.8035 41.9226 59.9049C42.0844 58.9883 42.1652 57.8561 42.1652 56.5082V55.1063C42.1652 53.7225 42.0844 52.5723 41.9226 51.6557C41.7788 50.7211 41.4913 50.0292 41.06 49.5799C40.6466 49.1126 40.0176 48.879 39.1729 48.879C38.3462 48.879 37.7082 49.1126 37.2589 49.5799C36.8275 50.0292 36.531 50.7121 36.3692 51.6287C36.2255 52.5273 36.1536 53.6596 36.1536 55.0255V56.4273C36.1536 57.7932 36.2255 58.9434 36.3692 59.8779C36.531 60.7945 36.8275 61.4864 37.2589 61.9537C37.7082 62.403 38.3462 62.6277 39.1729 62.6277ZM54.6791 65.3235C53.6727 65.3235 52.7741 65.1797 51.9833 64.8922C51.1925 64.5866 50.5186 64.0744 49.9614 63.3555C49.4043 62.6367 48.982 61.6662 48.6944 60.4441C48.4068 59.204 48.2631 57.6404 48.2631 55.7533C48.2631 53.8663 48.4068 52.3117 48.6944 51.0896C48.982 49.8495 49.4043 48.87 49.9614 48.1511C50.5186 47.4322 51.1925 46.929 51.9833 46.6415C52.7741 46.3359 53.6727 46.1832 54.6791 46.1832C55.6856 46.1832 56.5752 46.3359 57.348 46.6415C58.1388 46.929 58.8127 47.4322 59.3698 48.1511C59.927 48.87 60.3493 49.8495 60.6369 51.0896C60.9244 52.3117 61.0682 53.8663 61.0682 55.7533C61.0682 57.6404 60.9244 59.204 60.6369 60.4441C60.3493 61.6662 59.927 62.6367 59.3698 63.3555C58.8127 64.0744 58.1388 64.5866 57.348 64.8922C56.5752 65.1797 55.6856 65.3235 54.6791 65.3235ZM54.6791 62.6277C55.5238 62.6277 56.1528 62.403 56.5662 61.9537C56.9975 61.4864 57.2851 60.8035 57.4289 59.9049C57.5906 58.9883 57.6715 57.8561 57.6715 56.5082V55.1063C57.6715 53.7225 57.5906 52.5723 57.4289 51.6557C57.2851 50.7211 56.9975 50.0292 56.5662 49.5799C56.1528 49.1126 55.5238 48.879 54.6791 48.879C53.8524 48.879 53.2144 49.1126 52.7651 49.5799C52.3338 50.0292 52.0372 50.7121 51.8755 51.6287C51.7317 52.5273 51.6598 53.6596 51.6598 55.0255V56.4273C51.6598 57.7932 51.7317 58.9434 51.8755 59.8779C52.0372 60.7945 52.3338 61.4864 52.7651 61.9537C53.2144 62.403 53.8524 62.6277 54.6791 62.6277ZM73.3986 65.2426C72.3338 65.2426 71.4442 65.0472 70.7298 64.6563C70.0154 64.2519 69.4762 63.6386 69.1123 62.8164C68.7618 61.9942 68.5866 60.9495 68.5866 59.6825C68.5866 58.4155 68.7686 57.3776 69.1325 56.5688C69.4964 55.7466 70.0356 55.1333 70.75 54.7289C71.4779 54.3245 72.3675 54.1224 73.4189 54.1224C74.1467 54.1224 74.7803 54.2167 75.3194 54.4054C75.8586 54.5807 76.3169 54.8502 76.6943 55.2142C77.0717 55.5646 77.348 56.0027 77.5233 56.5284C77.712 57.0541 77.8063 57.6539 77.8063 58.3278H75.6834C75.6834 57.7617 75.6025 57.2967 75.4407 56.9328C75.279 56.5688 75.0296 56.2992 74.6926 56.124C74.3557 55.9353 73.9176 55.8409 73.3784 55.8409C72.8123 55.8409 72.3338 55.9757 71.9429 56.2453C71.552 56.5014 71.2555 56.8991 71.0533 57.4382C70.8511 57.9639 70.75 58.6581 70.75 59.5207V59.8645C70.75 60.6867 70.8444 61.3741 71.0331 61.9268C71.2353 62.4659 71.5318 62.8703 71.9227 63.1399C72.3271 63.396 72.8393 63.524 73.4593 63.524C73.9985 63.524 74.4298 63.4297 74.7533 63.241C75.0903 63.0388 75.3396 62.7557 75.5014 62.3918C75.6766 62.0144 75.7642 61.5628 75.7642 61.0371H77.8063C77.8063 61.6707 77.712 62.2435 77.5233 62.7557C77.348 63.2679 77.0717 63.7127 76.6943 64.0902C76.3304 64.4541 75.8721 64.7372 75.3194 64.9393C74.7668 65.1415 74.1265 65.2426 73.3986 65.2426ZM82.6229 65.2426C82.286 65.2426 81.922 65.2022 81.5311 65.1213C81.1402 65.0404 80.7696 64.8922 80.4191 64.6765C80.0821 64.4608 79.8058 64.1643 79.5901 63.7869C79.3745 63.396 79.2666 62.8905 79.2666 62.2705C79.2666 61.5426 79.4351 60.9428 79.7721 60.471C80.1091 59.9993 80.5809 59.6286 81.1874 59.359C81.794 59.0894 82.5151 58.9007 83.3508 58.7929C84.2 58.685 85.1233 58.6311 86.1208 58.6311V57.5798C86.1208 57.2293 86.0601 56.9193 85.9388 56.6497C85.831 56.3801 85.622 56.1712 85.312 56.0229C85.0155 55.8746 84.5841 55.8005 84.018 55.8005C83.4519 55.8005 83.0071 55.8746 82.6836 56.0229C82.3736 56.1577 82.1512 56.3329 82.0164 56.5486C81.8951 56.7508 81.8344 56.9732 81.8344 57.2158V57.5191H79.8125C79.7991 57.4517 79.7923 57.3843 79.7923 57.3169C79.7923 57.2495 79.7923 57.1686 79.7923 57.0743C79.7923 56.4408 79.9676 55.9083 80.318 55.477C80.6819 55.0322 81.1874 54.6952 81.8344 54.4661C82.4814 54.2369 83.2295 54.1224 84.0787 54.1224C84.9953 54.1224 85.7568 54.2572 86.3634 54.5267C86.9834 54.7828 87.4485 55.1535 87.7585 55.6388C88.0685 56.124 88.2235 56.7103 88.2235 57.3978V62.7962C88.2235 63.0523 88.2842 63.2342 88.4055 63.3421C88.5403 63.4499 88.6953 63.5038 88.8705 63.5038H89.5984V64.9191C89.4366 64.9865 89.2344 65.0539 88.9918 65.1213C88.7492 65.1887 88.4661 65.2224 88.1426 65.2224C87.7787 65.2224 87.4687 65.155 87.2126 65.0202C86.9699 64.8989 86.7678 64.7237 86.606 64.4945C86.4577 64.2519 86.3566 63.9823 86.3027 63.6858H86.1814C85.9388 63.9958 85.6423 64.2721 85.2918 64.5148C84.9548 64.7439 84.5639 64.9191 84.1191 65.0404C83.6743 65.1752 83.1756 65.2426 82.6229 65.2426ZM83.2093 63.5038C83.6271 63.5038 84.0113 63.4432 84.3617 63.3219C84.7257 63.1871 85.0357 63.0051 85.2918 62.7759C85.5479 62.5333 85.7501 62.2503 85.8984 61.9268C86.0466 61.5898 86.1208 61.2259 86.1208 60.835V60.1273C85.1907 60.1273 84.3752 60.1812 83.6743 60.2891C82.9734 60.3969 82.4275 60.5991 82.0366 60.8956C81.6457 61.1787 81.4503 61.5763 81.4503 62.0885C81.4503 62.3985 81.5176 62.6614 81.6524 62.877C81.7872 63.0792 81.9894 63.2342 82.259 63.3421C82.5286 63.4499 82.8453 63.5038 83.2093 63.5038ZM91.0502 65V50.3819H93.1529V65H91.0502Z" fill="white"/>
<circle opacity="0.5" cx="155.603" cy="26.955" r="20.2187" fill="#0A1B22"/>
<g clip-path="url(#clip0_24_19)">
<path d="M151.958 23.6027L151.956 23.6044L151.954 23.6063L151.958 23.6027ZM160.654 23.4322C160.593 23.371 160.526 23.3173 160.453 23.2725C160.35 23.2091 160.236 23.1685 160.117 23.1531C159.999 23.1378 159.878 23.148 159.764 23.1833C159.649 23.2185 159.543 23.2779 159.451 23.3579C159.359 23.4379 159.284 23.5367 159.23 23.6483C158.929 24.2686 158.514 24.8207 158.009 25.2728C158.086 24.8173 158.125 24.3555 158.125 23.8928C158.127 22.4853 157.772 21.1025 157.097 19.8851C156.422 18.6678 155.45 17.6594 154.281 16.9626C154.152 16.8863 154.007 16.8454 153.859 16.8438C153.711 16.8422 153.565 16.88 153.435 16.9536C153.305 17.0272 153.194 17.1343 153.115 17.2646C153.035 17.395 152.988 17.5445 152.978 17.699C152.929 18.5657 152.713 19.413 152.342 20.1895C151.971 20.966 151.453 21.6556 150.819 22.2165L150.618 22.3879C149.956 22.8541 149.37 23.4289 148.882 24.0901C148.124 25.0892 147.599 26.2594 147.348 27.5078C147.098 28.7563 147.129 30.0486 147.438 31.2823C147.748 32.5161 148.329 33.6573 149.134 34.6155C149.938 35.5737 150.946 36.3226 152.075 36.8027C152.208 36.8594 152.352 36.881 152.494 36.8658C152.637 36.8505 152.774 36.7988 152.893 36.7152C153.012 36.6316 153.109 36.5186 153.176 36.3863C153.244 36.254 153.279 36.1064 153.279 35.9565C153.278 35.8595 153.263 35.7632 153.235 35.6708C153.04 34.9022 152.983 34.102 153.069 33.3117C153.896 34.9429 155.223 36.236 156.837 36.983C157.034 37.0752 157.257 37.0876 157.462 37.0178C158.737 36.5872 159.886 35.8226 160.799 34.7967C161.712 33.7708 162.359 32.5177 162.679 31.1564C162.999 29.795 162.981 28.3708 162.626 27.0188C162.272 25.6669 161.593 24.4323 160.654 23.4322V23.4322ZM157.243 35.1603C156.481 34.7565 155.809 34.1895 155.271 33.4962C154.732 32.803 154.34 31.9989 154.118 31.1364C154.05 30.8459 153.998 30.5518 153.961 30.2554C153.936 30.0666 153.855 29.8907 153.73 29.7522C153.605 29.6138 153.441 29.5197 153.262 29.4833C153.207 29.4719 153.151 29.4662 153.095 29.4663C152.942 29.4662 152.791 29.5085 152.658 29.5889C152.525 29.6693 152.415 29.785 152.338 29.9242C151.613 31.2323 151.249 32.7249 151.285 34.2364C150.647 33.7178 150.114 33.072 149.717 32.3363C149.32 31.6007 149.066 30.7899 148.971 29.9509C148.875 29.1119 148.94 28.2614 149.161 27.4488C149.382 26.6361 149.755 25.8774 150.258 25.2166C150.64 24.6973 151.101 24.2471 151.623 23.8839C151.645 23.8687 151.667 23.852 151.688 23.834C151.688 23.834 151.947 23.6096 151.956 23.6044C153.2 22.503 154.086 21.0228 154.488 19.37C155.44 20.2907 156.075 21.5144 156.294 22.8511C156.513 24.1879 156.304 25.5629 155.699 26.7626C155.619 26.9227 155.586 27.104 155.605 27.2835C155.623 27.4631 155.692 27.6329 155.803 27.7715C155.914 27.9101 156.061 28.0114 156.226 28.0625C156.392 28.1136 156.568 28.1123 156.733 28.0587C158.071 27.6198 159.249 26.7625 160.107 25.6022C160.623 26.3995 160.961 27.3084 161.094 28.261C161.228 29.2137 161.154 30.1856 160.879 31.1043C160.603 32.023 160.133 32.8649 159.504 33.5672C158.874 34.2694 158.101 34.814 157.242 35.1603L157.243 35.1603Z" fill="#B8CED9"/>
</g>
<defs>
<clipPath id="clip0_24_19">
<rect width="20.2187" height="20.2187" fill="white" transform="translate(145.494 16.8438)"/>
</clipPath>
</defs>
</svg>
