<svg width="24" height="25" viewBox="0 0 24 25" fill="none" xmlns="http://www.w3.org/2000/svg">
<path fill-rule="evenodd" clip-rule="evenodd" d="M18 12.234C18 8.91939 15.3142 6.23159 12 6.23159C8.68584 6.23159 6 8.91939 6 12.234C6 15.5485 8.68584 18.2363 12 18.2363C15.3142 18.2363 18 15.5485 18 12.234ZM12 7.23159C14.7614 7.23159 17 9.47122 17 12.234C17 14.9967 14.7614 17.2363 12 17.2363C9.23858 17.2363 7 14.9967 7 12.234C7 9.47122 9.23858 7.23159 12 7.23159Z" fill="#52656E"/>
<path fill-rule="evenodd" clip-rule="evenodd" d="M20.5 12.2336C20.5 7.54046 16.694 3.73666 12 3.73666C7.30597 3.73666 3.5 7.54046 3.5 12.2336C3.5 16.9267 7.30597 20.7305 12 20.7305C16.694 20.7305 20.5 16.9267 20.5 12.2336ZM12 4.73666C16.1421 4.73666 19.5 8.09314 19.5 12.2336C19.5 16.374 16.1421 19.7305 12 19.7305C7.85786 19.7305 4.5 16.374 4.5 12.2336C4.5 8.09314 7.85786 4.73666 12 4.73666Z" fill="#52656E"/>
<path fill-rule="evenodd" clip-rule="evenodd" d="M23 12.2344C23 6.15924 18.0751 1.23438 12 1.23438C5.92487 1.23438 1 6.15924 1 12.2344C1 18.3095 5.92487 23.2344 12 23.2344C18.0751 23.2344 23 18.3095 23 12.2344ZM12 2.23438C17.5228 2.23438 22 6.71153 22 12.2344C22 17.7572 17.5228 22.2344 12 22.2344C6.47715 22.2344 2 17.7572 2 12.2344C2 6.71153 6.47715 2.23438 12 2.23438Z" fill="#52656E"/>
</svg>
