<svg width="24" height="25" viewBox="0 0 24 25" fill="none" xmlns="http://www.w3.org/2000/svg">
<path fill-rule="evenodd" clip-rule="evenodd" d="M12 8.23159C14.2087 8.23159 16 10.0231 16 12.234C16 14.4449 14.2087 16.2363 12 16.2363C9.79131 16.2363 8 14.4449 8 12.234C8 10.0231 9.79131 8.23159 12 8.23159ZM12 7.23159C14.7614 7.23159 17 9.47122 17 12.234C17 14.9967 14.7614 17.2363 12 17.2363C9.23858 17.2363 7 14.9967 7 12.234C7 9.47122 9.23858 7.23159 12 7.23159Z" fill="#6FD792"/>
<path opacity="0.5" fill-rule="evenodd" clip-rule="evenodd" d="M12 5.73666C15.5902 5.73666 18.5 8.64581 18.5 12.2336C18.5 15.8213 15.5902 18.7305 12 18.7305C8.40976 18.7305 5.5 15.8213 5.5 12.2336C5.5 8.64581 8.40976 5.73666 12 5.73666ZM12 4.73666C16.1421 4.73666 19.5 8.09314 19.5 12.2336C19.5 16.374 16.1421 19.7305 12 19.7305C7.85786 19.7305 4.5 16.374 4.5 12.2336C4.5 8.09314 7.85786 4.73666 12 4.73666Z" fill="#6FD792"/>
<path opacity="0.3" fill-rule="evenodd" clip-rule="evenodd" d="M12 3.23438C16.9706 3.23438 21 7.26381 21 12.2344C21 17.2049 16.9706 21.2344 12 21.2344C7.02944 21.2344 3 17.2049 3 12.2344C3 7.26381 7.02944 3.23438 12 3.23438ZM12 2.23438C17.5228 2.23438 22 6.71153 22 12.2344C22 17.7572 17.5228 22.2344 12 22.2344C6.47715 22.2344 2 17.7572 2 12.2344C2 6.71153 6.47715 2.23438 12 2.23438Z" fill="#6FD792"/>
</svg>
